<svg width="23" height="23" viewBox="0 0 23 23" fill="none" xmlns="http://www.w3.org/2000/svg">
<path d="M1.4375 11.5V18.6875C1.4375 20.2753 2.72468 21.5625 4.3125 21.5625H11.5M1.4375 11.5V4.3125C1.4375 2.72468 2.72468 1.4375 4.3125 1.4375H11.5M1.4375 11.5H21.5625M21.5625 11.5V4.3125C21.5625 2.72468 20.2753 1.4375 18.6875 1.4375H11.5M21.5625 11.5V18.6875C21.5625 20.2753 20.2753 21.5625 18.6875 21.5625H11.5M11.5 1.4375V21.5625M5.00458 6.20168H6.19536M6.19536 6.20168H7.38614M6.19536 6.20168V7.39246M6.19536 6.20168V5.01089M5.35335 15.834L6.19536 16.676M6.19536 16.676L7.03737 17.518M6.19536 16.676L5.35335 17.518M6.19536 16.676L7.03737 15.834M15.5812 6.20168L17.9628 6.20168M15.5812 16.9064H17.9628M16.772 14.992V15.0016M16.772 18.3601V18.3697" stroke="white" stroke-width="2" stroke-linecap="round"/>
</svg>
