<svg width="50" height="50" viewBox="0 0 50 50" fill="none" xmlns="http://www.w3.org/2000/svg">
<g id="Frame 62">
<g id="Union">
<path d="M12.9501 4.28002C12.9695 9.09274 14.1677 13.6725 16.3234 17.1754L18.1439 16.4662C16.1201 13.1777 14.9955 8.84799 14.977 4.27502L12.9501 4.28002Z" fill="#912302"/>
<path fill-rule="evenodd" clip-rule="evenodd" d="M13.7803 43.0569H35.4601V35.9915H13.7803V43.0569ZM33.4332 41.4439H15.8072V37.6042H33.4332V41.4439Z" fill="#912302"/>
<path fill-rule="evenodd" clip-rule="evenodd" d="M32.6364 30.8526C33.1997 31.3009 33.521 31.8894 33.5489 32.5188H39.8226V44.9155H43.0824L43.0821 50H6.15641V44.9155H9.41679V32.5188H15.6897C15.7177 31.8892 16.0389 31.3006 16.6013 30.8533C17.1913 30.3841 17.9741 30.1263 18.8063 30.1263C20.4587 30.1263 21.8033 29.0571 21.8033 27.7426C21.8033 26.8996 21.2416 26.1154 20.3353 25.6889C20.1967 25.6369 20.0601 25.5801 19.9234 25.5219C16.597 24.1326 13.8046 21.3569 11.8232 17.7143C6.44649 15.4431 3 10.9127 3 6.05739C3 5.33564 3.35405 4.65514 3.99774 4.1414C4.64331 3.62815 5.4978 3.3469 6.40537 3.3469H8.58389V0H40.6541V3.3469H42.8294C43.737 3.3469 44.5914 3.62815 45.2351 4.13965C45.8807 4.65514 46.2348 5.33564 46.2348 6.05739C46.2348 10.9126 42.7893 15.4424 37.4141 17.7138C35.4315 21.3572 32.6366 24.1342 29.3055 25.5254C29.177 25.5804 29.0416 25.6366 28.903 25.6886C27.9961 26.1156 27.4347 26.8994 27.4347 27.7423C27.4347 29.0568 28.7793 30.1261 30.432 30.1261C31.2639 30.1261 32.047 30.3838 32.6364 30.8526ZM31.2039 31.9938C31.3831 32.1367 31.4933 32.3206 31.5181 32.5188H17.7205C17.7454 32.3204 17.8549 32.1365 18.0341 31.9941C18.2405 31.8298 18.5151 31.7391 18.8063 31.7391C21.5765 31.7391 23.8302 29.9463 23.8302 27.7426C23.8302 26.3121 22.8632 24.9824 21.3075 24.2729L21.224 24.2389C21.109 24.1974 20.9965 24.1496 20.8747 24.0976C14.8314 21.5741 10.6108 13.3727 10.6108 4.15348V1.61299H27.02V10.5997L30.6509 9.20145L34.2818 10.5997L34.2816 1.61299H38.6275V4.15348C38.6275 13.3724 34.4069 21.5739 28.3542 24.1014C28.2421 24.1499 28.1302 24.1969 28.0156 24.2386L27.9304 24.2729C26.3748 24.9824 25.4081 26.3121 25.4081 27.7426C25.4081 29.9463 27.6618 31.7391 30.432 31.7391C30.7232 31.7391 30.9975 31.8301 31.2039 31.9938ZM10.6327 15.1812C9.40617 12.134 8.68578 8.65031 8.59391 4.95989H6.40506C6.03813 4.95989 5.69194 5.07414 5.4312 5.28164C5.17077 5.48914 5.02657 5.76589 5.02657 6.05764C5.02657 9.63384 7.15763 13.0096 10.6327 15.1812ZM44.2079 6.05764C44.2079 9.63323 42.0785 13.0078 38.6056 15.1791C39.8321 12.1323 40.5522 8.64938 40.6441 4.95989H42.8294C43.1963 4.95989 43.5425 5.07414 43.8017 5.27989C44.0637 5.48914 44.2079 5.76589 44.2079 6.05764ZM30.6509 7.40921L29.0465 8.02721V1.61299H32.2549V8.02696L30.6509 7.40921ZM15.6877 34.1333H33.5509V34.1318H37.7961V44.9137H11.4437V34.1318H15.6877V34.1333ZM41.0555 48.3873H8.18299V46.5285H41.0555V48.3873Z" fill="#912302"/>
</g>
</g>
</svg>
