<svg width="50" height="50" viewBox="0 0 50 50" fill="none" xmlns="http://www.w3.org/2000/svg">
<g id="Frame 65">
<g id="Union">
<path d="M24.2021 25.0194L22.0484 22.8776L21.053 23.867L24.2021 26.9982L29.0795 22.1502L28.0841 21.1608L24.2021 25.0194Z" fill="#912302"/>
<path fill-rule="evenodd" clip-rule="evenodd" d="M16.5082 23.7492C16.5082 18.9888 20.3823 15.1147 25.1428 15.1147C29.9032 15.1147 33.7773 18.9888 33.7773 23.7492C33.7773 28.5083 29.9032 32.3838 25.1428 32.3838C20.3823 32.3838 16.5082 28.5083 16.5082 23.7492ZM18.1787 23.7492C18.1787 27.5885 21.3035 30.7133 25.1428 30.7133C28.982 30.7133 32.1068 27.5885 32.1068 23.7492C32.1068 19.9087 28.982 16.7852 25.1428 16.7852C21.3035 16.7852 18.1787 19.91 18.1787 23.7492Z" fill="#912302"/>
<path fill-rule="evenodd" clip-rule="evenodd" d="M32.1254 3.34211L32.2852 3.96922C33.428 8.39931 36.8885 11.8599 41.3146 13.0026L41.9417 13.1651V21.9756C41.9417 32.7668 35.4691 42.3253 25.4527 46.3257L25.1425 46.4519L24.8337 46.3257C14.8159 42.3226 8.342 32.7655 8.342 21.9756V13.1651L8.96912 13.0026C13.4006 11.8599 16.8624 8.39931 18.0039 3.96922L18.1664 3.34211H32.1254ZM25.1439 44.6458C34.3478 40.828 40.2725 31.9652 40.2725 21.9743V14.4435C35.7632 13.059 32.2274 9.52329 30.8456 5.01397H19.4448C18.0603 9.52329 14.5245 13.059 10.0139 14.4435V21.9743C10.0139 31.9665 15.9412 40.828 25.1439 44.6458Z" fill="#912302"/>
<path fill-rule="evenodd" clip-rule="evenodd" d="M35.2331 0.83525C35.2331 5.91931 39.3678 10.0553 44.4492 10.0553H45.2858V21.9745C45.2858 34.5558 37.3025 45.7807 25.4168 49.9047L25.1429 50L24.8689 49.9047C12.9846 45.7807 5 34.5544 5 21.9745V10.0553H5.83526C10.9193 10.0553 15.0567 5.91931 15.0567 0.83525V0H35.2331V0.83525ZM25.1429 48.2288C36.2027 44.2606 43.6139 33.7474 43.6139 21.9745V11.695C38.2747 11.2881 34.0004 7.0124 33.5935 1.67185H16.6963C16.2881 7.0124 12.0124 11.2881 6.67052 11.695V21.9745C6.67052 33.7474 14.0818 44.2606 25.1429 48.2288Z" fill="#912302"/>
</g>
</g>
</svg>
