<svg width="50" height="50" viewBox="0 0 50 50" fill="none" xmlns="http://www.w3.org/2000/svg">
<g id="Union">
<path fill-rule="evenodd" clip-rule="evenodd" d="M19.8827 34.5872L21.5785 41.504C21.787 42.3648 21.7713 43.275 21.5335 44.1382C21.297 44.9947 20.8373 45.7827 20.2038 46.4184L17.9391 48.6787L12.5633 38.6884L9.70895 41.5428L8.45776 40.2916L11.3116 37.4377L1.32065 32.0607L3.58211 29.7995C4.21259 29.1675 5.00158 28.7065 5.86282 28.4678C6.72005 28.229 7.63228 28.2128 8.49602 28.4233L15.4136 30.1188C16.4384 28.2902 17.7289 26.5876 19.2551 25.0636L23.5039 20.8142L19.7256 17.0361L0 6.41452L3.91593 4.47455C4.61067 4.12506 5.37015 3.90181 6.16939 3.81256C6.93813 3.72707 7.72936 3.77756 8.50535 3.96206L14.9996 5.55293L17.8602 2.69275C18.4222 2.13051 19.1694 1.82102 19.9647 1.82102H19.9659C20.7611 1.82152 21.5084 2.13126 22.0699 2.6935C22.6309 3.25424 22.9404 4.00098 22.9411 4.79597C22.9414 5.59195 22.6321 6.34019 22.0691 6.90218L21.7618 7.20946L34.0877 10.2289L41.9587 2.35671C43.4577 0.858985 45.4422 0 47.4046 0C48.0074 0 48.5959 0.0812486 49.1529 0.241496L49.6238 0.376743L49.7588 0.846985C50.4483 3.24319 49.6178 6.06764 47.6426 8.04286L39.772 15.9129L42.7895 28.2366L43.0975 27.9284C44.2584 26.7684 46.1461 26.7684 47.3064 27.9284C47.8689 28.4904 48.1786 29.2376 48.1786 30.0343C48.1786 30.8301 47.8689 31.5773 47.3064 32.1388L44.4457 35.0008L46.0342 41.4879C46.2206 42.2656 46.2714 43.0531 46.1861 43.8326C46.0952 44.6306 45.8724 45.3871 45.5247 46.0853L43.5832 50L32.9636 30.2754L29.1863 26.4978L24.937 30.7467C23.4116 32.2734 21.7094 33.5634 19.8827 34.5872ZM15.0277 36.5917C14.7796 36.661 14.5311 36.7254 14.2824 36.7849L13.6319 36.9409L18.3713 45.748L18.9523 45.1682C19.3751 44.7442 19.6703 44.2387 19.8278 43.6682C19.9881 43.0868 19.9988 42.4993 19.8593 41.9238L18.2623 35.4105C17.2146 35.8899 16.1334 36.2853 15.0277 36.5917ZM19.136 32.9769C20.7769 32.0428 22.3086 30.8739 23.6856 29.4957L46.3917 6.79188C47.7799 5.40365 48.4466 3.50744 48.1699 1.83122C47.9211 1.79022 47.6654 1.76947 47.4046 1.76947C45.9082 1.76947 44.3787 2.43971 43.21 3.60819L20.5059 26.3153C19.1288 27.6909 17.9601 29.222 17.0254 30.8639L16.6666 31.5527C16.1391 32.5659 15.7021 33.5997 15.3599 34.6417C16.4029 34.2999 17.4366 33.8629 18.4481 33.3352L19.136 32.9769ZM43.9533 32.9896L46.0552 30.8868C46.2836 30.6596 46.4091 30.3561 46.4091 30.0343C46.4091 29.7108 46.2836 29.4076 46.0556 29.1803C45.5847 28.7101 44.8194 28.7101 44.3487 29.1803L43.282 30.2478L43.9533 32.9896ZM19.7515 6.717L20.8184 5.6507C21.0466 5.42295 21.1719 5.11996 21.1719 4.79721C21.1716 4.47472 21.0459 4.17173 20.8184 3.94473C20.5906 3.71623 20.2876 3.59074 19.9652 3.59074C19.6424 3.59074 19.3399 3.71623 19.1119 3.94398L17.0097 6.04535L19.7515 6.717ZM14.5902 31.739L8.07627 30.1425C7.50853 30.0042 6.9078 30.0142 6.33631 30.1732C5.76832 30.3307 5.24983 30.634 4.83433 31.0505L4.25459 31.63L13.0593 36.3695L13.2152 35.7174C13.5424 34.3516 14.0038 33.02 14.5902 31.739ZM34.3984 29.2076L30.4392 25.2484L38.309 17.3788L44.3142 41.9044C44.4524 42.4804 44.4904 43.0641 44.4277 43.6356C44.3607 44.2244 44.1964 44.7828 43.9402 45.2973L43.5187 46.1468L34.4604 29.3221L34.3984 29.2076ZM3.85393 6.47977L20.7934 15.6014L24.7533 19.5613L32.6222 11.6914L8.09011 5.68228C7.52012 5.54678 6.93263 5.50753 6.36564 5.57128C5.7759 5.63703 5.21741 5.80103 4.70617 6.05777L3.85393 6.47977Z" fill="#912302"/>
<path d="M11.2255 15.2431L12.4765 16.4941L4.6342 24.3364L3.38319 23.0854L11.2255 15.2431Z" fill="#912302"/>
<path d="M8.79314 14.2612L7.54213 13.0102L2.9245 17.6278L4.17551 18.8788L8.79314 14.2612Z" fill="#912302"/>
<path d="M33.504 37.5183L34.7552 38.7695L26.9129 46.6118L25.6617 45.3606L33.504 37.5183Z" fill="#912302"/>
<path d="M36.9879 42.4517L35.737 41.2005L31.1188 45.8175L32.3696 47.0687L36.9879 42.4517Z" fill="#912302"/>
</g>
</svg>
