<svg width="50" height="50" viewBox="0 0 50 50" fill="none" xmlns="http://www.w3.org/2000/svg">
<g id="Frame 63">
<g id="Union">
<path fill-rule="evenodd" clip-rule="evenodd" d="M44.7117 24.8376L48.8851 20.9394L50 21.9808L45.8266 25.879C45.5286 26.1574 45.1328 26.3106 44.7117 26.3106C44.2907 26.3106 43.8949 26.1574 43.5968 25.879L43.1348 25.4474L41.5579 26.9204V28.3934L38.7304 31.0345L39.0963 31.3784C40.2734 32.4773 40.2734 34.2669 39.0963 35.3658C38.5081 35.9152 37.7346 36.1899 36.9619 36.1899C36.9328 36.1899 36.904 36.1863 36.8752 36.1826C36.854 36.1799 36.8327 36.1772 36.8113 36.1759C36.8515 36.9448 36.57 37.7255 35.9424 38.311C35.3542 38.8605 34.5807 39.1352 33.808 39.1352C33.7789 39.1352 33.7501 39.1315 33.7213 39.1278C33.7001 39.1251 33.6788 39.1224 33.6574 39.1212C33.6976 39.8901 33.4161 40.6708 32.7885 41.2563C32.2003 41.8057 31.4268 42.0804 30.6541 42.0804C30.6251 42.0804 30.5963 42.0767 30.5674 42.0731C30.5462 42.0704 30.5249 42.0677 30.5035 42.0664C30.5437 42.8353 30.2622 43.616 29.6346 44.2015C29.0464 44.7509 28.2729 45.0256 27.5002 45.0256C26.7275 45.0256 25.954 44.7509 25.3659 44.2015L25 43.8598L24.6341 44.1993C24.0641 44.7318 23.3064 45.0249 22.4998 45.0249C21.6932 45.0249 20.9347 44.7325 20.3646 44.1993C19.7378 43.6145 19.4555 42.8338 19.4965 42.0657C19.4739 42.0667 19.4517 42.0696 19.4294 42.0725C19.4018 42.0761 19.3742 42.0797 19.3459 42.0797C18.5393 42.0797 17.7808 41.7873 17.2107 41.2541C16.5839 40.6693 16.3016 39.8886 16.3426 39.1204C16.32 39.1214 16.2978 39.1243 16.2755 39.1272C16.248 39.1308 16.2203 39.1344 16.192 39.1344C15.3854 39.1344 14.6269 38.842 14.0568 38.3088C13.43 37.724 13.1477 36.9434 13.1887 36.1752C13.1662 36.1762 13.1439 36.1791 13.1216 36.182C13.0941 36.1856 13.0665 36.1892 13.0381 36.1892C12.2315 36.1892 11.473 35.8968 10.903 35.3636C9.72577 34.2647 9.72577 32.4758 10.903 31.3762L11.2688 31.0345L8.44214 28.3934V26.9204L6.8652 25.4474L6.40316 25.879C6.10669 26.1574 5.7101 26.3106 5.28826 26.3106C4.86643 26.3106 4.46983 26.1574 4.17258 25.8783L0 21.9808L1.1149 20.9394L5.28826 24.8376L17.5773 13.3586L8.67316 5.0414L9.78806 4L18.6922 12.3172C18.9903 12.5956 19.1543 12.9653 19.1543 13.3586C19.1543 13.7519 18.9903 14.1216 18.6922 14.4L18.2302 14.8316L19.8071 16.3046H22.961L24.2115 17.4727L25.462 16.3046H30.1929L31.7698 14.8316L31.3078 14.4C31.0097 14.1231 30.8457 13.7526 30.8457 13.3586C30.8457 12.9646 31.0097 12.5941 31.3085 12.3165L40.2119 4L41.3268 5.0414L32.4226 13.3586L44.7117 24.8376ZM32.8847 15.873L42.0199 24.406L39.9809 26.3106V27.7836L37.6155 29.9931L35.0191 27.5678L33.9042 28.6092L37.9814 32.4176C38.5435 32.9427 38.5435 33.7971 37.9814 34.3222C37.4192 34.8473 36.5046 34.8473 35.9424 34.3222L31.8652 30.5138L30.7503 31.5552L34.8275 35.3636C35.3897 35.8887 35.3897 36.743 34.8275 37.2682C34.2653 37.7933 33.3507 37.7933 32.7885 37.2682L28.7113 33.4597L27.5964 34.5011L31.6736 38.3096C32.2358 38.8347 32.2358 39.689 31.6736 40.2141C31.1114 40.7393 30.1968 40.7393 29.6346 40.2141L25.5574 36.4057L24.4426 37.4471L28.5197 41.2555C29.0819 41.7806 29.0819 42.635 28.5197 43.1601C27.9575 43.6852 27.0429 43.6852 26.4807 43.1601L10.0191 27.7836V26.3106L7.9801 24.406L17.1153 15.873L19.1543 17.7776H22.3082L23.0966 18.5141L18.7876 22.5383C17.6113 23.6386 17.6113 25.4275 18.7876 26.5257C19.3577 27.0589 20.1162 27.3513 20.9228 27.3513C21.7294 27.3513 22.4871 27.0581 23.0572 26.5257L27.6918 22.1966H28.2091C28.3762 23.2939 28.9155 24.3073 29.7702 25.105C30.8134 26.0786 32.1995 26.6155 33.6732 26.6155H35.2501C36.9895 26.6155 38.404 25.2942 38.404 23.6695H36.827C36.827 24.4819 36.1198 25.1425 35.2501 25.1425H33.6732C32.6206 25.1425 31.6302 24.7595 30.8859 24.0636C30.1416 23.3683 29.7308 22.4433 29.7308 21.4601V20.7236H27.039L21.9415 25.4843C21.3975 25.9939 20.4474 25.9917 19.9025 25.4843C19.3404 24.9591 19.3412 24.1048 19.9025 23.5804L26.1149 17.7776H30.8457L32.8847 15.873ZM12.0179 32.4176C11.4557 32.9427 11.4557 33.7971 12.0179 34.3222C12.5635 34.8296 13.5128 34.8311 14.0568 34.3222L14.4227 33.9804L12.3845 32.0759L12.0179 32.4176ZM15.1717 35.3636C14.6096 35.8887 14.6096 36.743 15.1717 37.2682C15.7173 37.7756 16.6667 37.7778 17.2107 37.2682L17.5766 36.9264L15.5384 35.0218L15.1717 35.3636ZM18.3256 38.3096C17.7634 38.8347 17.7634 39.689 18.3256 40.2141C18.8712 40.7216 19.8205 40.7238 20.3646 40.2141L20.7304 39.8724L18.6922 37.9678L18.3256 38.3096ZM21.4795 43.1601C22.0243 43.6675 22.9744 43.6698 23.5185 43.1601L23.8843 42.8184L21.8461 40.9138L21.4795 41.2555C20.9173 41.7806 20.9173 42.635 21.4795 43.1601Z" fill="#912302"/>
<path d="M4.50003 19.9869H6.07697V21.4599H4.50003V19.9869Z" fill="#912302"/>
<path d="M43.925 19.9869H45.5019V21.4599H43.925V19.9869Z" fill="#912302"/>
</g>
</g>
</svg>
