<svg width="50" height="50" viewBox="0 0 50 50" fill="none" xmlns="http://www.w3.org/2000/svg">
<g id="Frame 64">
<g id="Union">
<path fill-rule="evenodd" clip-rule="evenodd" d="M43.3188 27.7383L47.8406 30C48.4906 30.325 49.0359 30.8242 49.4172 31.4422C49.7977 32.0562 50 32.7664 50 33.4945V35.9523L49.0016 36.4492C47.6008 37.1523 46.1148 37.6898 44.5859 38.0508C43.5711 38.2898 42.493 38.4469 41.4062 38.5281V44.0625H39.8438V37.0312C39.8438 33.6094 37.4054 32.3894 34.0306 30.7008L34.0258 30.6984L33.9844 30.6781L33.943 30.6984L33.9156 30.6437L30.3328 28.8523C29.7852 31.2937 27.6039 33.125 25 33.125C22.3961 33.125 20.2148 31.2937 19.6672 28.8539L16.0844 30.6453L16.057 30.6992L16.0156 30.6797L15.9742 30.6992L15.9711 30.7008C12.5954 32.389 10.1562 33.6089 10.1562 37.0312V44.0625H8.59375V38.5281C7.50781 38.4477 6.42891 38.2922 5.41328 38.0508C3.88438 37.6898 2.39766 37.15 0.995313 36.4484L0 35.9523V33.4945C0 32.7656 0.202344 32.0555 0.585156 31.4391C0.964063 30.8242 1.50937 30.325 2.15937 30L6.68203 27.7383C6.77109 27.6891 7.03125 27.3789 7.03125 26.875V26.3C6.02422 25.2398 5.47031 23.7 5.47031 22.1875L5.46875 20.6258C5.46875 19.3719 5.95703 18.1953 6.84219 17.3102C7.72578 16.4258 8.90312 15.9375 10.1562 15.9375C11.4094 15.9375 12.5867 16.4258 13.4711 17.3109C14.3555 18.1953 14.8438 19.3719 14.8438 20.625L14.8422 22.1883C14.8422 23.7 14.2883 25.2414 13.2812 26.3V26.875C13.2812 27.3789 13.5414 27.6891 13.632 27.7406L16.0156 28.9312L19.9633 26.957C20.0562 26.9109 20.3125 26.6195 20.3125 26.0937V23.4187C18.9133 22.032 18.1187 20.057 17.9883 18.0836C17.8641 18.0141 17.7484 17.9266 17.6453 17.8234C17.35 17.5281 17.1875 17.1359 17.1875 16.7187V12.8125C17.1875 10.7266 18 8.76484 19.4758 7.28906C20.9516 5.81328 22.9141 5 25 5C27.0859 5 29.0484 5.81328 30.5234 7.28906C32 8.76484 32.8125 10.7266 32.8125 12.8125V16.7187C32.8125 17.1367 32.65 17.5297 32.3555 17.8242C32.2523 17.9273 32.1359 18.0141 32.0133 18.0836C31.882 20.057 31.0867 22.032 29.6875 23.4187V26.0937C29.6875 26.6195 29.9438 26.9109 30.0367 26.9578L33.9844 28.9312L36.3695 27.7383C36.4578 27.6891 36.7188 27.3789 36.7188 26.875V26.3C35.7117 25.2398 35.1578 23.7 35.1578 22.1875L35.1562 20.6258C35.1562 19.3727 35.6437 18.1961 36.5297 17.3102C37.4133 16.4258 38.5898 15.9375 39.8438 15.9375C41.0977 15.9375 42.2742 16.4258 43.1586 17.3117C44.0437 18.1961 44.5312 19.3727 44.5312 20.625L44.5297 22.1883C44.5297 23.7 43.9758 25.2414 42.9688 26.3V26.875C42.9688 27.3789 43.2297 27.6891 43.3188 27.7383ZM28.8703 28.0117C28.4117 27.5578 28.125 26.8508 28.125 26.0937V24.5633C27.2281 25.0336 26.1883 25.3125 25 25.3125C23.8117 25.3125 22.7719 25.0336 21.875 24.5633V26.0937C21.875 26.8508 21.5883 27.5578 21.1297 28.0117C21.3125 29.9969 22.968 31.5625 25 31.5625C27.0328 31.5625 28.6883 29.9969 28.8703 28.0117ZM14.2742 29.8078L12.932 29.1367C12.432 28.8883 11.9023 28.2406 11.7594 27.3453C11.2734 27.5422 10.7398 27.6562 10.1562 27.6562C9.57266 27.6562 9.03906 27.5422 8.55313 27.3453C8.41016 28.2406 7.88047 28.8883 7.37969 29.1367L2.85781 31.3992C2.46875 31.5937 2.14219 31.8906 1.91406 32.2617C1.68359 32.632 1.5625 33.057 1.5625 33.4945V34.9852L1.69297 35.0484C2.98906 35.6984 4.36094 36.1961 5.77187 36.5289C6.67422 36.743 7.63125 36.8828 8.59687 36.9609C8.62891 33.0539 11.2539 31.3547 14.2742 29.8078ZM41.4031 36.9625C42.3672 36.8836 43.325 36.743 44.2258 36.5297C45.6391 36.1969 47.0102 35.6992 48.3039 35.0516L48.4375 34.9852V33.4945C48.4375 33.0578 48.3172 32.632 48.0883 32.2648C47.8586 31.893 47.532 31.5937 47.1422 31.3992L42.6195 29.1367C42.1195 28.8883 41.5914 28.2406 41.4469 27.3453C40.9625 27.5422 40.4266 27.6562 39.8438 27.6562C39.2609 27.6562 38.725 27.5422 38.2406 27.3477C38.0961 28.2422 37.5672 28.8898 37.0664 29.1391L35.725 29.8086C38.7469 31.3555 41.3703 33.0555 41.4031 36.9625ZM39.8438 17.5C39.0078 17.5 38.2234 17.825 37.6352 18.4148C37.0438 19.0055 36.7188 19.7906 36.7188 20.625L36.7203 22.1867C36.7203 23.8094 37.6891 26.0937 39.8438 26.0937C41.9984 26.0937 42.9672 23.8094 42.9672 22.1875L42.9688 20.6242C42.9688 19.7906 42.6438 19.0055 42.0531 18.4156C41.4641 17.825 40.6797 17.5 39.8438 17.5ZM25 6.5625C23.3312 6.5625 21.7609 7.21328 20.5805 8.39375C19.4852 9.48906 18.8539 10.9203 18.7672 12.4547C19.2344 12.1859 19.7594 12.0312 20.3125 12.0312H25.4578L26.7914 10.6977C27.0148 10.4734 27.3508 10.4078 27.643 10.5281C27.9352 10.6492 28.125 10.9344 28.125 11.25C28.125 11.4586 28.2062 11.6547 28.3547 11.8031C28.5016 11.95 28.6969 12.0312 28.9062 12.0312H29.6875C30.2406 12.0312 30.7656 12.1859 31.2313 12.4539C31.1461 10.9203 30.5141 9.48906 29.4195 8.39375C28.2383 7.21328 26.6688 6.5625 25 6.5625ZM19.2078 14.0516C18.9125 14.3469 18.75 14.7391 18.75 15.1562V16.7187C19.1812 16.7187 19.5312 17.0687 19.5312 17.5C19.5312 19.9164 21.0156 23.75 25 23.75C28.9844 23.75 30.4688 19.9164 30.4688 17.5C30.4688 17.0687 30.818 16.7187 31.25 16.7187V15.1562C31.25 14.7391 31.0875 14.3469 30.7922 14.0516C30.4969 13.7562 30.1047 13.5937 29.6875 13.5937H28.9062C28.2797 13.5937 27.6898 13.35 27.2469 12.907C27.1711 12.8297 27.0992 12.7477 27.0352 12.6625L26.3336 13.3648C26.1875 13.5117 25.9891 13.5937 25.7812 13.5937H20.3125C19.8953 13.5937 19.5031 13.7562 19.2078 14.0516ZM10.1562 17.5C9.32109 17.5 8.53594 17.825 7.94766 18.4148C7.35625 19.0055 7.03125 19.7906 7.03125 20.625L7.03281 22.1867C7.03281 23.8094 8.00156 26.0937 10.1562 26.0937C12.3109 26.0937 13.2797 23.8094 13.2797 22.1875L13.2812 20.6242C13.2812 19.7906 12.9563 19.0055 12.3664 18.4156C11.7766 17.825 10.9914 17.5 10.1562 17.5Z" fill="#912302"/>
<path d="M16.4051 39.3753H14.8426V44.0628H16.4051V39.3753Z" fill="#912302"/>
<path d="M33.5931 39.3753H35.1556V44.0628H33.5931V39.3753Z" fill="#912302"/>
</g>
</g>
</svg>
