<svg width="50" height="50" viewBox="0 0 50 50" fill="none" xmlns="http://www.w3.org/2000/svg">
<g id="Frame 66">
<g id="Vector">
<path fill-rule="evenodd" clip-rule="evenodd" d="M46.3201 21.6685C45.9537 20.7871 45.4215 19.9944 44.7365 19.3121L43.6241 18.2105C43.4413 8.13871 35.1297 0 24.9388 0C14.747 0 6.43464 8.1379 6.25344 18.2113L5.14269 19.3137C4.45934 19.9919 3.92549 20.7847 3.55822 21.6669C3.1877 22.55 3 23.4855 3 24.446V31.4516C3 32.9492 4.04006 34.2024 5.43764 34.5621V36.2903C5.43764 37.3669 5.86017 38.379 6.62721 39.1411C7.39426 39.9024 8.41481 40.3226 9.50038 40.3226C10.5859 40.3226 11.6065 39.9024 12.3735 39.1411C13.1406 38.379 13.5631 37.3669 13.5631 36.2903V26.6129C13.5631 25.5363 13.1406 24.5242 12.3735 23.7621C11.6057 23.0008 10.5859 22.5806 9.50038 22.5806C8.41481 22.5806 7.39507 23.0008 6.62721 23.7621C5.86017 24.5242 5.43764 25.5363 5.43764 26.6129V28.3411C5.14838 28.4153 4.8778 28.5282 4.62509 28.675V24.446C4.62509 23.6992 4.77054 22.9726 5.05899 22.2855C5.34501 21.5976 5.75941 20.9823 6.29163 20.454L7.87528 18.8823V18.5484C7.87528 9.20968 15.5295 1.6129 24.9388 1.6129C34.3473 1.6129 42.0023 9.20968 42.0023 18.5484V18.8831L43.5867 20.4516C44.1173 20.9823 44.5334 21.5984 44.8194 22.2855C45.1062 22.9726 45.2525 23.6992 45.2525 24.446V28.675C44.9998 28.5282 44.7284 28.4153 44.4399 28.3411V26.6129C44.4399 25.5363 44.0166 24.5234 43.2495 23.7621C42.4833 23.0008 41.4627 22.5806 40.3772 22.5806C39.2916 22.5806 38.2711 23.0008 37.5048 23.7621C36.7378 24.5234 36.3144 25.5363 36.3144 26.6129V36.2903C36.3144 37.3669 36.7378 38.3798 37.504 39.1411C38.271 39.9024 39.2916 40.3226 40.3772 40.3226C41.2726 40.3226 42.1152 40.0234 42.8148 39.4976V39.5161C42.8148 43.5186 39.5346 46.7742 35.5019 46.7742H29.0015V45.1613H23.3137C22.6636 45.1613 22.051 45.4137 21.5903 45.8694C21.1296 46.325 20.876 46.9339 20.876 47.5806C20.876 48.2274 21.1304 48.8363 21.5903 49.2919C22.0502 49.7476 22.6636 50 23.3137 50H29.0015V48.3871H35.5019C40.4292 48.3871 44.4399 44.4065 44.4399 39.5161V34.5621C45.8383 34.2024 46.8776 32.9492 46.8776 31.4516V24.446C46.8776 23.4863 46.6907 22.5508 46.3201 21.6685ZM7.06274 26.6129C7.06274 25.9669 7.31625 25.3597 7.77697 24.9024C8.69677 23.9879 10.3032 23.9879 11.223 24.9024C11.6845 25.3597 11.938 25.9669 11.938 26.6129V36.2903C11.938 36.9363 11.6845 37.5444 11.2238 38.0008C10.304 38.9161 8.69758 38.9161 7.77778 38.0008C7.31625 37.5444 7.06274 36.9363 7.06274 36.2903V34.5621C8.46032 34.2024 9.50038 32.9492 9.50038 31.4516C9.50038 29.954 8.46032 28.7008 7.06274 28.3411V26.6129ZM6.25019 29.8387C7.14643 29.8387 7.87528 30.5613 7.87528 31.4516C7.87528 32.3419 7.14643 33.0645 6.25019 33.0645C5.35395 33.0645 4.62509 32.3419 4.62509 31.4516C4.62509 30.5613 5.35395 29.8387 6.25019 29.8387ZM27.3764 48.3871H23.3137C23.0967 48.3871 22.8928 48.3032 22.7384 48.15C22.5856 47.9984 22.5011 47.7968 22.5011 47.5806C22.5011 47.3645 22.5856 47.1629 22.7384 47.0113C22.8928 46.8581 23.0967 46.7742 23.3137 46.7742H27.3764V48.3871ZM42.8148 36.2903C42.8148 36.9363 42.5605 37.5444 42.0998 38.0008C41.18 38.9161 39.5744 38.9161 38.6538 38.0008C38.1939 37.5444 37.9395 36.9363 37.9395 36.2903V26.6129C37.9395 25.9669 38.1939 25.3597 38.6538 24.9024C39.5744 23.9879 41.18 23.9879 42.1006 24.9024C42.5613 25.3597 42.8148 25.9669 42.8148 26.6129V28.3411C41.4164 28.7008 40.3772 29.954 40.3772 31.4516C40.3772 32.9492 41.4164 34.2024 42.8148 34.5621V36.2903ZM43.6274 33.0645C42.7303 33.0645 42.0023 32.3419 42.0023 31.4516C42.0023 30.5613 42.7303 29.8387 43.6274 29.8387C44.5244 29.8387 45.2525 30.5613 45.2525 31.4516C45.2525 32.3419 44.5244 33.0645 43.6274 33.0645ZM24.9388 4.83871C17.322 4.83871 11.1255 10.9887 11.1255 18.5484H9.50038C9.50038 10.0992 16.4257 3.22581 24.9388 3.22581C33.4518 3.22581 40.3772 10.0992 40.3772 18.5484H38.7521C38.7521 10.9887 32.5556 4.83871 24.9388 4.83871Z" fill="#912302"/>
<path fill-rule="evenodd" clip-rule="evenodd" d="M44.4399 28.3411V26.6129C44.4399 25.5363 44.0166 24.5234 43.2495 23.7621C42.4833 23.0008 41.4627 22.5806 40.3772 22.5806C39.2916 22.5806 38.2711 23.0008 37.5048 23.7621C36.7378 24.5234 36.3144 25.5363 36.3144 26.6129V36.2903C36.3144 37.3669 36.7378 38.3798 37.504 39.1411C38.271 39.9024 39.2916 40.3226 40.3772 40.3226C41.2726 40.3226 42.1152 40.0234 42.8148 39.4976V39.5161C42.8148 43.5186 39.5346 46.7742 35.5019 46.7742H29.0015V45.1613H23.3137C22.6636 45.1613 22.051 45.4137 21.5903 45.8694C21.1296 46.325 20.876 46.9339 20.876 47.5806C20.876 48.2274 21.1304 48.8363 21.5903 49.2919C22.0502 49.7476 22.6636 50 23.3137 50H29.0015V48.3871H35.5019C40.4292 48.3871 44.4399 44.4065 44.4399 39.5161V34.5621H42.8148V36.2903C42.8148 36.9363 42.5605 37.5444 42.0998 38.0008C41.18 38.9161 39.5744 38.9161 38.6538 38.0008C38.1939 37.5444 37.9395 36.9363 37.9395 36.2903V26.6129C37.9395 25.9669 38.1939 25.3597 38.6538 24.9024C39.5744 23.9879 41.18 23.9879 42.1006 24.9024C42.5613 25.3597 42.8148 25.9669 42.8148 26.6129V28.3411H44.4399ZM23.3137 48.3871H27.3764V46.7742H23.3137C23.0967 46.7742 22.8928 46.8581 22.7384 47.0113C22.5856 47.1629 22.5011 47.3645 22.5011 47.5806C22.5011 47.7968 22.5856 47.9984 22.7384 48.15C22.8928 48.3032 23.0967 48.3871 23.3137 48.3871Z" fill="#912302"/>
<path d="M5.43764 34.5621V36.2903C5.43764 37.3669 5.86017 38.379 6.62721 39.1411C7.39426 39.9024 8.41481 40.3226 9.50038 40.3226C10.5859 40.3226 11.6065 39.9024 12.3735 39.1411C13.1406 38.379 13.5631 37.3669 13.5631 36.2903V26.6129C13.5631 25.5363 13.1406 24.5242 12.3735 23.7621C11.6057 23.0008 10.5859 22.5806 9.50038 22.5806C8.41481 22.5806 7.39507 23.0008 6.62721 23.7621C5.86017 24.5242 5.43764 25.5363 5.43764 26.6129V28.3411H7.06274V26.6129C7.06274 25.9669 7.31625 25.3597 7.77697 24.9024C8.69677 23.9879 10.3032 23.9879 11.223 24.9024C11.6845 25.3597 11.938 25.9669 11.938 26.6129V36.2903C11.938 36.9363 11.6845 37.5444 11.2238 38.0008C10.304 38.9161 8.69758 38.9161 7.77778 38.0008C7.31625 37.5444 7.06274 36.9363 7.06274 36.2903V34.5621H5.43764Z" fill="#912302"/>
</g>
</g>
</svg>
