<svg width="44" height="43" viewBox="0 0 44 43" fill="none" xmlns="http://www.w3.org/2000/svg">
<g id="Frame 32419">
<path id="Vector" d="M1.91565 9.63096H5.67839C6.22668 9.63096 6.75346 9.8735 7.11361 10.2979L11.3548 15.2369C11.6182 15.5456 11.9998 15.722 12.403 15.722H17.3913L12.6771 9.6916C12.2148 9.09627 12.1234 8.30251 12.446 7.61348C12.7685 6.92996 13.4296 6.5 14.1714 6.5H17.7568C18.8157 6.5 19.8156 6.91342 20.5789 7.66309L28.7817 15.722H37.0436C38.6347 15.722 40.129 16.3559 41.2578 17.5135C42.4028 18.6986 43.021 20.2641 42.9995 21.9233C42.9672 24.3266 41.0213 26.278 38.6615 26.278H28.7817L20.5789 34.3369C19.8156 35.0866 18.8157 35.5 17.7568 35.5H14.1714C13.4296 35.5 12.7685 35.0756 12.446 34.3865C12.1234 33.6975 12.2148 32.9037 12.6771 32.3084L17.3913 26.2725H11.258C9.24762 26.2725 7.36625 25.1645 6.36106 23.3785L0.260033 12.58C-0.0839882 11.9682 -0.0893631 11.2295 0.260033 10.6177C0.604057 10.0003 1.2276 9.63648 1.91565 9.63648V9.63096ZM19.0899 9.25062C18.7297 8.89783 18.2567 8.69939 17.7568 8.69939H14.6606L20.1435 15.7165H25.6747L19.0899 9.25062ZM8.21556 22.2706C8.8391 23.3785 10.0056 24.0676 11.2526 24.0676H19.106L19.7833 23.1966C20.1542 22.7226 20.8315 22.6454 21.2938 23.0258C21.7561 23.4061 21.8313 24.1006 21.4604 24.5747L14.6498 33.2896H17.7461C18.246 33.2896 18.719 33.0967 19.0791 32.7384L27.5937 24.3707C27.7926 24.1723 28.0614 24.0621 28.3355 24.0621H38.6508C39.8441 24.0621 40.8224 23.0864 40.8386 21.8847C40.8547 20.8209 40.4569 19.8176 39.7259 19.0624C39.0056 18.3238 38.0488 17.9159 37.0328 17.9159H12.3868C11.3709 17.9159 10.3979 17.4694 9.72603 16.6811L5.55476 11.8248H2.30805L8.19943 22.2596L8.21556 22.2706Z" fill="#1E434C"/>
</g>
</svg>
