<svg width="44" height="44" viewBox="0 0 44 44" fill="none" xmlns="http://www.w3.org/2000/svg">
<path fill-rule="evenodd" clip-rule="evenodd" d="M19.2536 32.2055H21.2977V30.2416H18.4411C18.8523 30.8289 19.1297 31.4993 19.2536 32.2055ZM18.1799 19.7157C18.294 19.7125 18.4076 19.7323 18.5139 19.7738C18.6203 19.8153 18.7172 19.8777 18.799 19.9573C18.8808 20.0369 18.9459 20.1321 18.9903 20.2373C19.0347 20.3424 19.0575 20.4554 19.0575 20.5696C19.0575 20.6837 19.0347 20.7967 18.9903 20.9019C18.9459 21.007 18.8808 21.1022 18.799 21.1818C18.7172 21.2614 18.6203 21.3238 18.5139 21.3653C18.4076 21.4068 18.294 21.4266 18.1799 21.4235H15.7238C15.6097 21.4266 15.4961 21.4068 15.3898 21.3653C15.2834 21.3238 15.1865 21.2614 15.1047 21.1818C15.0229 21.1022 14.9578 21.007 14.9134 20.9019C14.869 20.7967 14.8462 20.6837 14.8462 20.5696C14.8462 20.4554 14.869 20.3424 14.9134 20.2373C14.9578 20.1321 15.0229 20.0369 15.1047 19.9573C15.1865 19.8777 15.2834 19.8153 15.3898 19.7738C15.4961 19.7323 15.6097 19.7125 15.7238 19.7157H18.1799ZM18.1799 15.8649C18.4065 15.8649 18.6237 15.9549 18.7839 16.1151C18.9441 16.2753 19.0341 16.4926 19.0341 16.7192C19.0341 16.9457 18.9441 17.163 18.7839 17.3232C18.6237 17.4834 18.4065 17.5734 18.1799 17.5734H10.0587C9.83218 17.5734 9.6149 17.4834 9.45471 17.3232C9.29451 17.163 9.20451 16.9457 9.20451 16.7192C9.20451 16.4926 9.29451 16.2753 9.45471 16.1151C9.6149 15.9549 9.83218 15.8649 10.0587 15.8649H18.1799ZM18.1799 12.0142C18.4065 12.0142 18.6237 12.1042 18.7839 12.2644C18.9441 12.4246 19.0341 12.6419 19.0341 12.8684C19.0341 13.095 18.9441 13.3123 18.7839 13.4725C18.6237 13.6327 18.4065 13.7227 18.1799 13.7227H5.57007C5.34352 13.7227 5.12625 13.6327 4.96605 13.4725C4.80585 13.3123 4.71585 13.095 4.71585 12.8684C4.71585 12.6419 4.80585 12.4246 4.96605 12.2644C5.12625 12.1042 5.34352 12.0142 5.57007 12.0142H18.1799ZM42.9997 30.9303C43.005 31.322 42.932 31.7108 42.7851 32.0739C42.6382 32.4371 42.4204 32.7673 42.1444 33.0453C41.8683 33.3232 41.5396 33.5433 41.1775 33.6927C40.8153 33.8421 40.4271 33.9177 40.0353 33.9152H35.9433C35.7419 35.0552 35.1454 36.0878 34.2585 36.8318C33.3716 37.5758 32.2509 37.9835 31.0933 37.9835C29.9357 37.9835 28.815 37.5758 27.9281 36.8318C27.0412 36.0878 26.4447 35.0552 26.2433 33.9152H19.2536C19.0522 35.0552 18.4557 36.0878 17.5688 36.8318C16.6819 37.5758 15.5613 37.9835 14.4036 37.9835C13.246 37.9835 12.1254 37.5758 11.2384 36.8318C10.3515 36.0878 9.75502 35.0552 9.55364 33.9152H3.82313C3.59669 33.9152 3.37951 33.8253 3.21933 33.6652C3.05915 33.5052 2.96908 33.2881 2.96891 33.0616V30.2378H0.855503C0.630023 30.2376 0.413828 30.148 0.25439 29.9885C0.0949516 29.8291 0.00530476 29.6129 0.00513478 29.3874L2.41654e-07 7.85352C-8.41521e-05 7.7414 0.0219371 7.63037 0.0648035 7.52677C0.10767 7.42317 0.170541 7.32904 0.249819 7.24976C0.329098 7.17048 0.423229 7.10761 0.526828 7.06474C0.630427 7.02188 0.74146 6.99985 0.853577 6.99994H22.1519C22.264 6.99985 22.3751 7.02188 22.4787 7.06474C22.5823 7.10761 22.6764 7.17048 22.7557 7.24976C22.835 7.32904 22.8978 7.42317 22.9407 7.52677C22.9836 7.63037 23.0056 7.7414 23.0055 7.85352V9.98361H32.5322C33.056 9.98007 33.5712 10.1173 34.0239 10.3809C34.4767 10.6445 34.8503 11.0248 35.1058 11.4822L38.9943 18.2922C39.0346 18.3646 39.0821 18.4328 39.1362 18.4956C39.1918 18.5579 39.2535 18.6144 39.3204 18.6644L41.772 20.5429C42.1358 20.8137 42.4307 21.1664 42.6329 21.5723C42.835 21.9783 42.9387 22.4262 42.9356 22.8797L42.9997 30.9303ZM41.2894 29.5183H38.5072C38.3951 29.5183 38.284 29.4962 38.1804 29.4533C38.0768 29.4104 37.9827 29.3474 37.9034 29.2681C37.8242 29.1888 37.7613 29.0946 37.7184 28.991C37.6756 28.8873 37.6536 28.7763 37.6537 28.6641V25.6509C37.6536 25.5388 37.6756 25.4277 37.7184 25.3241C37.7613 25.2204 37.8242 25.1263 37.9034 25.0469C37.9827 24.9676 38.0768 24.9047 38.1804 24.8617C38.284 24.8188 38.3951 24.7967 38.5072 24.7967H41.2451L41.2329 22.8867C41.2348 22.6946 41.191 22.5048 41.1052 22.3328C41.0194 22.1609 40.894 22.0118 40.7394 21.8977L39.5341 20.9749H27.3607C27.2484 20.9749 27.1373 20.9529 27.0336 20.91C26.9299 20.8671 26.8356 20.8042 26.7562 20.7249C26.6768 20.6456 26.6139 20.5514 26.5709 20.4477C26.5279 20.344 26.5058 20.2329 26.5058 20.1206V14.9607C26.5058 14.7341 26.5958 14.5168 26.756 14.3566C26.9162 14.1964 27.1335 14.1064 27.36 14.1064H34.6437L33.6258 12.3229C33.5197 12.1274 33.3617 11.965 33.1692 11.8537C32.9767 11.7424 32.7571 11.6864 32.5348 11.692H23.0061V32.2055H26.2433C26.4447 31.0655 27.0412 30.0329 27.9281 29.2889C28.815 28.5449 29.9357 28.1372 31.0933 28.1372C32.2509 28.1372 33.3716 28.5449 34.2585 29.2889C35.1454 30.0329 35.7419 31.0655 35.9433 32.2055H40.0353C40.2025 32.2088 40.3685 32.1783 40.5235 32.1156C40.6785 32.053 40.8192 31.9596 40.9371 31.8411C41.0549 31.7225 41.1475 31.5813 41.2093 31.426C41.2711 31.2707 41.3007 31.1044 41.2964 30.9373L41.2875 29.5158L41.2894 29.5183ZM41.2573 26.5077H39.3608V27.8099H41.2765L41.2554 26.5077H41.2573ZM31.0933 34.0352C31.2864 34.0352 31.4752 33.978 31.6357 33.8707C31.7962 33.7634 31.9214 33.6109 31.9952 33.4325C32.0691 33.2541 32.0884 33.0578 32.0507 32.8684C32.0129 32.679 31.9199 32.5051 31.7833 32.3686C31.6467 32.2321 31.4727 32.1392 31.2833 32.1016C31.094 32.064 30.8977 32.0834 30.7193 32.1574C30.5409 32.2314 30.3885 32.3566 30.2813 32.5172C30.1742 32.6778 30.117 32.8666 30.1171 33.0597C30.1173 33.3185 30.2202 33.5666 30.4033 33.7495C30.5863 33.9325 30.8345 34.0352 31.0933 34.0352ZM14.403 34.0352C14.5961 34.0352 14.7848 33.978 14.9454 33.8707C15.1059 33.7634 15.231 33.6109 15.3049 33.4325C15.3788 33.2541 15.3981 33.0578 15.3603 32.8684C15.3226 32.679 15.2296 32.5051 15.093 32.3686C14.9564 32.2321 14.7824 32.1392 14.593 32.1016C14.4036 32.064 14.2073 32.0834 14.029 32.1574C13.8506 32.2314 13.6982 32.3566 13.591 32.5172C13.4838 32.6778 13.4267 32.8666 13.4268 33.0597C13.427 33.3185 13.5299 33.5666 13.713 33.7495C13.896 33.9325 14.1442 34.0352 14.403 34.0352ZM16.3444 28.5332H21.2977V8.70774H1.70972V28.539H12.4603C13.0741 28.2766 13.7348 28.1414 14.4023 28.1414C15.0699 28.1414 15.7305 28.2766 16.3444 28.539V28.5332ZM4.67734 30.2416V32.2055H9.55493C9.67867 31.4994 9.9558 30.829 10.3668 30.2416H4.67734ZM16.6768 30.7859C16.1508 30.2596 15.4586 29.9321 14.7181 29.859C13.9777 29.786 13.2348 29.9719 12.6161 30.3852C11.9973 30.7984 11.5411 31.4135 11.325 32.1255C11.1089 32.8374 11.1463 33.6023 11.431 34.2898C11.7156 34.9772 12.2298 35.5447 12.886 35.8955C13.5422 36.2464 14.2997 36.3588 15.0294 36.2137C15.7592 36.0686 16.4161 35.675 16.8882 35.0999C17.3602 34.5248 17.6183 33.8038 17.6183 33.0597C17.619 32.6374 17.5361 32.219 17.3745 31.8288C17.213 31.4386 16.9759 31.0841 16.6768 30.7859ZM35.6192 15.8168H28.2142V19.269H37.5953C37.5677 19.226 37.5407 19.1811 37.5144 19.1355L35.6192 15.8168ZM33.3672 30.7859C32.8412 30.2603 32.1493 29.9333 31.4094 29.8606C30.6694 29.788 29.9271 29.9741 29.309 30.3873C28.6909 30.8005 28.2351 31.4153 28.0194 32.1268C27.8037 32.8384 27.8413 33.6027 28.1259 34.2896C28.4106 34.9765 28.9245 35.5435 29.5803 35.8939C30.236 36.2444 30.993 36.3567 31.7222 36.2116C32.4515 36.0666 33.1079 35.6732 33.5796 35.0985C34.0513 34.5237 34.3092 33.8032 34.3093 33.0597C34.3099 32.6373 34.227 32.2189 34.0653 31.8287C33.9036 31.4385 33.6663 31.084 33.3672 30.7859Z" fill="black"/>
</svg>
