<svg width="44" height="44" viewBox="0 0 44 44" fill="none" xmlns="http://www.w3.org/2000/svg">
<path d="M43.8265 15.3197C43.6401 15.0455 43.3302 14.881 42.9988 14.881H39.2205V12.367C39.2205 11.8143 38.7724 11.3651 38.2188 11.3651H36.5363V7.00182C36.5363 6.44867 36.0877 5.99994 35.5347 5.99994H23.7978C23.2452 5.99994 22.7966 6.44819 22.7966 7.00182V11.3651H20.6139C20.0609 11.3651 19.6123 11.8138 19.6123 12.367V15.4575L18.1934 11.9879C18.0399 11.6116 17.6738 11.3651 17.2671 11.3651H15.8563V8.65081C15.8563 8.09813 15.4077 7.64892 14.8547 7.64892H10.908C10.355 7.64892 9.90684 8.09765 9.90684 8.65081V11.3651H8.49706C8.09038 11.3651 7.72423 11.6116 7.57071 11.9884L5.63315 16.7307H2.68677C2.35732 16.7307 2.04838 16.8929 1.86197 17.1647C1.6746 17.436 1.6336 17.7822 1.75231 18.0903L6.50038 30.4905C6.69776 31.007 7.27702 31.2654 7.79288 31.0675C8.30969 30.8697 8.56762 30.2907 8.37024 29.7743L5.88202 23.2756H35.5356C36.0882 23.2756 36.5373 22.8279 36.5373 22.2742C36.5373 21.7206 36.0887 21.2728 35.5356 21.2728H5.11443L4.14184 18.7331H35.866C36.2708 18.7331 36.635 18.4894 36.7905 18.1151L37.3015 16.8838H41.5252L36.2522 30.2102C36.0486 30.7242 36.3008 31.3065 36.8148 31.5101C36.9359 31.5578 37.0603 31.5802 37.1828 31.5802C37.5814 31.5802 37.9585 31.3403 38.1139 30.9469L43.9285 16.2505C44.0515 15.943 44.0129 15.5939 43.8265 15.3197ZM11.9097 9.65222H13.8539V11.3651H11.9097V9.65222ZM7.79574 16.7307L9.16929 13.3684H16.5948L17.9693 16.7307H7.79574ZM25.4817 16.7307H21.6156V13.3684H25.4817V16.7307ZM24.7994 11.3651V8.00275H28.6655V11.3651H24.7994ZM31.3501 16.7307H27.4841V13.3684H31.3501V16.7307ZM30.6679 11.3651V8.00275H34.533V11.3651H30.6679ZM37.2181 14.881H36.6331C36.2279 14.881 35.8632 15.1251 35.7087 15.499L35.1976 16.7307H33.353V13.3684H37.2181V14.881Z" fill="black"/>
<path d="M43.1905 32.8315C42.6799 32.6178 42.0935 32.8577 41.8794 33.3674C41.3879 34.5396 40.0925 35.3149 38.6718 35.2711C37.2486 35.2372 36.0081 34.4156 35.5852 33.2273C35.3993 32.7056 34.8262 32.4338 34.306 32.6197C34.0619 32.7065 33.8765 32.8796 33.7625 33.0913C33.7501 33.1057 33.7354 33.1285 33.7177 33.171C33.2271 34.3422 31.9299 35.1161 30.5106 35.0741C29.0874 35.0408 27.8474 34.2196 27.4245 33.0317C27.423 33.0279 27.4216 33.026 27.4207 33.0222C27.3291 32.768 27.1379 32.5501 26.8695 32.4366C26.3594 32.2225 25.7725 32.4624 25.5584 32.9721C25.0659 34.1447 23.7696 34.9244 22.3494 34.8767C20.9272 34.8438 19.6871 34.0222 19.2642 32.8334C19.0788 32.3126 18.5067 32.0394 17.9851 32.2258C17.761 32.3055 17.587 32.459 17.4716 32.6479C17.4492 32.6703 17.4249 32.7118 17.3977 32.7771C16.9062 33.9502 15.5994 34.7279 14.1891 34.6798C12.7665 34.6469 11.5259 33.8257 11.103 32.6369C11.1011 32.6321 11.0992 32.6302 11.0973 32.6259C11.0053 32.3727 10.8146 32.1567 10.5467 32.0437C10.037 31.8296 9.4501 32.0704 9.23604 32.5801C8.74545 33.7518 7.44341 34.5253 6.02934 34.4843C4.60525 34.4504 3.36567 33.6292 2.94469 32.4414C2.76019 31.9197 2.1876 31.6465 1.66697 31.832C1.1454 32.017 0.872689 32.5892 1.0572 33.1104C1.75374 35.076 3.7323 36.4332 5.98214 36.4871C6.02696 36.488 6.07177 36.4885 6.11611 36.4885C7.66797 36.4885 9.11398 35.8614 10.108 34.8257C11.0711 35.9406 12.5367 36.6454 14.141 36.6831C14.1882 36.684 14.2339 36.6845 14.2806 36.6845C15.8306 36.6845 17.2752 36.0579 18.2688 35.0231C19.2318 36.138 20.6974 36.8428 22.3017 36.881C22.347 36.8819 22.3918 36.8824 22.4366 36.8824C23.988 36.8824 25.434 36.2553 26.4285 35.2201C27.3916 36.335 28.8576 37.0398 30.4634 37.0779C30.5082 37.0789 30.553 37.0793 30.5973 37.0793C32.1497 37.0793 33.5957 36.4523 34.5892 35.417C35.5523 36.5314 37.0179 37.2362 38.6231 37.2748C38.6679 37.2758 38.7128 37.2763 38.7571 37.2763C40.9473 37.2763 42.9326 36.0302 43.724 34.1438C43.94 33.6326 43.7002 33.0456 43.1905 32.8315Z" fill="black"/>
</svg>
