<svg width="133" height="51" viewBox="0 0 133 51" fill="none" xmlns="http://www.w3.org/2000/svg">
<g clip-path="url(#clip0_2531_9753)">
<path fill-rule="evenodd" clip-rule="evenodd" d="M46.2239 44.7503H50.7181C38.6353 55.1381 21.0678 51.499 13.6084 39.5594C21.7415 49.6455 35.6423 52.5488 46.2239 44.7503Z" fill="#1E434C"/>
<path d="M107.875 22.9525L118.016 22.9833C120.751 22.9833 123.08 23.8053 124.993 25.4463C126.986 27.2074 127.983 29.4364 127.983 32.1365V33.8976C127.983 36.4807 126.968 38.6604 124.934 40.44C122.901 42.2195 120.594 43.1093 118.016 43.1093H80.8882L85.7114 37.0071H118.016C118.878 37.0071 119.677 36.7054 120.419 36.0989C121.16 35.4924 121.532 34.7596 121.532 33.8976V32.1365C121.532 30.1014 120.36 29.0854 118.013 29.0854L97.7266 29.0269C94.9889 29.0269 92.6449 28.1772 90.6916 26.4746C89.5412 25.474 88.7321 24.301 88.2584 22.9525H107.875Z" fill="#1E434C"/>
<path d="M128.1 15.0585H103.051L107.868 8.9656L133 8.86092L128.1 15.0585Z" fill="#1E434C"/>
<path d="M88.6368 32.5583L88.4799 32.3674C88.4215 32.2997 88.3599 32.1827 88.3599 32.0626C88.3599 31.884 88.4799 31.7517 88.6983 31.7517C88.9475 31.7517 89.0459 31.9148 89.0459 32.0688C89.0459 32.2012 88.9629 32.3274 88.8337 32.4167L88.6399 32.5583H88.6368ZM89.2212 34.0792C89.1566 34.1439 89.0059 34.2916 88.8952 34.3686C88.7691 34.4517 88.646 34.5072 88.4984 34.5072C88.1662 34.5072 87.9508 34.2578 87.9508 33.9745C87.9508 33.8483 87.9939 33.6851 88.1415 33.525C88.243 33.4142 88.4092 33.2972 88.526 33.2356L89.2212 34.0792ZM89.9718 33.2387L89.5719 33.6944L88.9505 32.9339C89.1813 32.7584 89.3043 32.6383 89.3873 32.5275C89.4519 32.4444 89.5411 32.2966 89.5411 32.0688C89.5411 31.6932 89.2551 31.3083 88.6983 31.3083C88.1415 31.3083 87.8647 31.7209 87.8647 32.1211C87.8647 32.4598 88.0923 32.7276 88.2123 32.8508C88.1815 32.8723 88.0277 32.977 87.9324 33.0447C87.6647 33.2449 87.4248 33.4881 87.4248 33.953C87.4248 34.5226 87.8216 34.9628 88.4799 34.9628C88.8121 34.9628 89.0336 34.8735 89.2489 34.7196C89.3597 34.6395 89.4642 34.5441 89.5442 34.461L89.8918 34.8951H90.547L89.898 34.0823L90.3132 33.602L89.9718 33.2418V33.2387Z" fill="#1E434C"/>
<path fill-rule="evenodd" clip-rule="evenodd" d="M13.31 12.8479C32.4001 -14.273 68.8761 10.2341 57.4854 35.1168H53.9756C63.6314 8.56843 30.9513 -9.68874 13.31 12.8479Z" fill="#1E434C"/>
<path fill-rule="evenodd" clip-rule="evenodd" d="M21.8492 16.5363C21.3662 16.5548 20.8802 16.5763 20.3973 16.5948C21.1201 13.5561 22.369 10.9021 24.1408 8.63001C22.852 11.6441 22.0891 14.2796 21.8492 16.5332" fill="#1E434C"/>
<path fill-rule="evenodd" clip-rule="evenodd" d="M29.647 15.3849C29.1518 15.5142 28.6565 15.6404 28.1613 15.7697C29.1333 12.2014 30.3514 9.65832 31.8218 8.14356C30.7144 10.3172 29.9884 12.7309 29.647 15.3879" fill="#1E434C"/>
<path fill-rule="evenodd" clip-rule="evenodd" d="M42.4927 33.9345C44.3691 32.0534 45.9532 30.0399 47.2483 27.8939C46.4885 30.1753 45.1319 32.5398 43.1786 34.9844C42.9848 34.9259 42.8157 34.8397 42.7141 34.7196C42.5511 34.5318 42.505 34.1993 42.4927 33.9345ZM42.4927 25.7018C43.0156 25.3293 43.5385 24.9475 44.0584 24.5565C43.5693 25.0738 43.0464 25.5879 42.4927 26.1021V25.7018ZM42.4927 17.5061C43.557 16.5548 44.5782 15.5296 45.5503 14.4274C44.689 15.7789 43.6708 17.0628 42.4927 18.282V17.5061ZM42.4927 9.52286C43.0925 9.04872 43.6831 8.55304 44.2737 8.0358C43.7354 8.69466 43.1417 9.33813 42.4927 9.9662V9.52286ZM41.9113 44.5471L41.9943 44.5655C42.2066 44.6025 42.4188 44.6333 42.6311 44.6579H42.6588L42.6865 44.6641L42.7388 44.6702L42.8033 44.6764H42.831L42.871 44.6825L42.9756 44.6918H43.0064C43.1417 44.7072 43.2771 44.7164 43.4124 44.7256C43.4586 44.7256 43.5047 44.7318 43.5508 44.7349H43.557L43.6708 44.741H43.76C41.7483 46.1172 39.0782 47.084 35.753 47.6443C6.07508 52.0778 0.467407 3.48537 34.744 4.66454C25.4266 5.30493 19.0961 9.47359 15.7585 17.1767C21.7046 17.9156 27.3092 17.2783 32.5754 15.2617V16.4347C31.6034 16.8842 30.5883 17.3214 29.527 17.7463C29.6624 20.3263 29.9362 22.3029 30.3483 23.6699C29.89 23.8207 29.161 23.9593 28.1582 24.0793C27.8844 22.4045 27.7429 20.5387 27.7306 18.4821C25.7773 19.0424 23.8055 19.5289 21.8184 19.9414C22.0184 22.5215 22.2706 24.2918 22.5782 25.2493C21.7507 25.3262 20.9233 25.4001 20.0958 25.4771C19.782 23.2604 19.6836 21.487 19.7974 20.1539C17.8103 20.2801 16.1031 20.3325 14.6819 20.3078C14.2759 21.9919 14.0636 24.0208 14.0452 26.3915C20.9971 26.7486 27.1738 25.8404 32.5785 23.6637V25.2801C32.1417 25.4986 31.6957 25.7111 31.2404 25.9235C31.7756 27.0103 32.1786 27.8139 32.5785 28.5682V30.5478C32.0925 30.8865 31.7141 31.102 31.4373 31.1975C30.5298 29.9167 29.7577 28.5066 29.1271 26.9672C27.1216 27.6846 25.3651 28.2665 23.8578 28.7191C24.5438 30.2369 25.3651 31.7085 26.3156 33.1371C25.4082 33.3865 24.5007 33.6389 23.5933 33.8883C22.529 32.1981 21.7015 30.6802 21.1078 29.3348C17.9918 29.7474 15.8385 29.9844 14.645 30.046C15.0326 31.8871 15.8078 33.8083 16.9613 35.8095C22.246 35.2953 27.4507 33.8545 32.5723 31.493V33.4696C31.3327 34.2516 30.0315 35.0429 28.6719 35.8403C30.293 37.3704 31.9325 38.6635 33.5936 39.7165C32.9876 40.1475 32.3509 40.5231 31.6803 40.8433C29.8746 40.052 28.0382 38.7836 26.171 37.0379C23.7656 37.9215 21.5416 38.6173 19.496 39.1253C21.8861 41.5822 24.2423 43.254 26.5556 44.1437C29.4809 42.9061 32.1509 41.5545 34.5656 40.0798C35.0024 40.6647 35.51 41.2158 36.0944 41.73C36.1621 41.7885 36.2298 41.8501 36.3005 41.9055C34.8702 43.1216 33.3106 44.3531 31.6157 45.6062C34.8825 46.1603 38.3123 45.8032 41.9082 44.5409L41.9113 44.5471Z" fill="#1E434C"/>
<path d="M86.6067 8.86039H103.993L99.1694 14.9625H81.7834L86.6067 8.86039ZM64.0315 32.3977L64.0068 18.0752C64.0038 15.5321 65.022 13.3616 67.0552 11.5605C69.0885 9.75939 71.3925 8.86039 73.9733 8.86039H82.6263L77.803 14.9625H73.9702C73.112 14.9625 72.3092 15.2766 71.5647 15.9016C70.8234 16.5266 70.4512 17.2501 70.4512 18.0721V24.2635L64.0284 32.3946L64.0315 32.3977ZM77.0063 43.0133H73.9733C71.2387 43.0133 68.8916 42.1512 66.9383 40.4302C65.7787 39.4081 64.9635 38.2166 64.4929 36.8496L70.4574 29.3004V33.7985C70.4574 35.8336 71.6293 36.8496 73.9764 36.8496H81.8788L77.0094 43.0102L77.0063 43.0133Z" fill="#912302"/>
<path d="M93.4264 33.5861V34.0602C93.4264 34.3496 93.3556 34.5713 93.2141 34.7283C93.0726 34.8822 92.8634 34.9623 92.5897 34.9623C92.3159 34.9623 92.1067 34.8853 91.9652 34.7283C91.8237 34.5744 91.753 34.3496 91.753 34.0602V32.2006C91.753 31.9112 91.8237 31.6895 91.9652 31.5325C92.1067 31.3786 92.3159 31.2985 92.5897 31.2985C92.8634 31.2985 93.0726 31.3755 93.2141 31.5325C93.3556 31.6865 93.4264 31.9112 93.4264 32.2006V32.5485H92.8942V32.1668C92.8942 32.0375 92.8665 31.9451 92.8142 31.8927C92.7619 31.8404 92.6912 31.8127 92.602 31.8127C92.5128 31.8127 92.442 31.8404 92.3897 31.8927C92.3374 31.9451 92.3098 32.0375 92.3098 32.1668V34.0972C92.3098 34.2265 92.3374 34.3157 92.3897 34.3681C92.442 34.4204 92.5128 34.4451 92.602 34.4451C92.6912 34.4451 92.7619 34.4204 92.8142 34.3681C92.8665 34.3157 92.8942 34.2265 92.8942 34.0972V33.5861H93.4264ZM94.3061 31.3416V34.1002C94.3061 34.2295 94.3338 34.3188 94.3861 34.3712C94.4384 34.4235 94.5091 34.4481 94.5984 34.4481C94.6876 34.4481 94.7583 34.4235 94.8106 34.3712C94.8629 34.3188 94.8906 34.2295 94.8906 34.1002V31.3416H95.4227V34.0664C95.4227 34.3558 95.352 34.5774 95.2105 34.7345C95.069 34.8884 94.8598 34.9685 94.586 34.9685C94.3123 34.9685 94.1031 34.8915 93.9616 34.7345C93.8201 34.5805 93.7494 34.3558 93.7494 34.0664V31.3416H94.3123H94.3061ZM95.7303 32.2006C95.7303 31.9112 95.798 31.6895 95.9364 31.5325C96.0749 31.3786 96.281 31.2985 96.5578 31.2985C96.8347 31.2985 97.0408 31.3755 97.1792 31.5325C97.3176 31.6865 97.3853 31.9112 97.3853 32.2006V32.3145H96.8531V32.1668C96.8531 32.0375 96.8285 31.9451 96.7793 31.8927C96.7301 31.8404 96.6624 31.8127 96.5732 31.8127C96.484 31.8127 96.4163 31.8404 96.3671 31.8927C96.3179 31.9451 96.2933 32.0375 96.2933 32.1668C96.2933 32.2899 96.321 32.3977 96.3763 32.49C96.4317 32.5824 96.4994 32.6717 96.5793 32.7548C96.6624 32.8379 96.7485 32.9211 96.8408 33.0042C96.9331 33.0873 97.0223 33.1797 97.1023 33.2782C97.1823 33.3767 97.253 33.4906 97.3053 33.6169C97.3607 33.7431 97.3884 33.8909 97.3884 34.0602C97.3884 34.3496 97.3176 34.5713 97.1761 34.7283C97.0346 34.8822 96.8254 34.9623 96.5517 34.9623C96.2779 34.9623 96.0687 34.8853 95.9272 34.7283C95.7857 34.5744 95.715 34.3496 95.715 34.0602V33.8416H96.2471V34.0972C96.2471 34.2265 96.2748 34.3157 96.3271 34.3681C96.3794 34.4204 96.4501 34.4451 96.5394 34.4451C96.6286 34.4451 96.6993 34.4204 96.7516 34.3681C96.8039 34.3157 96.8316 34.2265 96.8316 34.0972C96.8316 33.974 96.8039 33.8662 96.7485 33.7739C96.6932 33.6815 96.6255 33.5922 96.5455 33.5091C96.4624 33.426 96.3763 33.3429 96.284 33.2597C96.1918 33.1766 96.1026 33.0842 96.0226 32.9857C95.9395 32.8872 95.8718 32.7733 95.8195 32.647C95.7642 32.5208 95.7365 32.373 95.7365 32.2037L95.7303 32.2006ZM99.2832 31.3416V31.8527H98.6957V34.9192H98.1328V31.8527H97.5452V31.3416H99.2832ZM100.046 34.0972C100.046 34.2265 100.074 34.3188 100.126 34.3712C100.178 34.4235 100.249 34.4512 100.338 34.4512C100.428 34.4512 100.498 34.4235 100.551 34.3712C100.603 34.3188 100.631 34.2265 100.631 34.0972V32.1668C100.631 32.0375 100.603 31.9451 100.551 31.8927C100.498 31.8404 100.428 31.8127 100.338 31.8127C100.249 31.8127 100.178 31.8404 100.126 31.8927C100.074 31.9451 100.046 32.0375 100.046 32.1668V34.0972ZM99.4832 32.2006C99.4832 31.9112 99.557 31.6895 99.7015 31.5325C99.8492 31.3786 100.058 31.2985 100.335 31.2985C100.612 31.2985 100.821 31.3755 100.969 31.5325C101.117 31.6865 101.187 31.9112 101.187 32.2006V34.0602C101.187 34.3496 101.113 34.5713 100.969 34.7283C100.821 34.8822 100.612 34.9623 100.335 34.9623C100.058 34.9623 99.8492 34.8853 99.7015 34.7283C99.5539 34.5744 99.4832 34.3496 99.4832 34.0602V32.2006ZM102.741 33.8816L103.122 31.3416H103.903V34.9192H103.371V32.3546L102.984 34.9192H102.452L102.033 32.3884V34.9192H101.544V31.3416H102.325L102.738 33.8816H102.741ZM104.242 32.2006C104.242 31.9112 104.31 31.6895 104.448 31.5325C104.586 31.3786 104.792 31.2985 105.069 31.2985C105.346 31.2985 105.552 31.3755 105.691 31.5325C105.829 31.6865 105.897 31.9112 105.897 32.2006V32.3145H105.365V32.1668C105.365 32.0375 105.34 31.9451 105.291 31.8927C105.242 31.8404 105.174 31.8127 105.085 31.8127C104.995 31.8127 104.928 31.8404 104.879 31.8927C104.829 31.9451 104.805 32.0375 104.805 32.1668C104.805 32.2899 104.832 32.3977 104.888 32.49C104.943 32.5824 105.011 32.6717 105.091 32.7548C105.174 32.8379 105.26 32.9211 105.352 33.0042C105.445 33.0873 105.534 33.1797 105.617 33.2782C105.7 33.3767 105.768 33.4906 105.82 33.6169C105.875 33.7431 105.903 33.8909 105.903 34.0602C105.903 34.3496 105.832 34.5713 105.691 34.7283C105.549 34.8822 105.34 34.9623 105.066 34.9623C104.792 34.9623 104.583 34.8853 104.442 34.7283C104.3 34.5744 104.23 34.3496 104.23 34.0602V33.8416H104.762V34.0972C104.762 34.2265 104.789 34.3157 104.842 34.3681C104.894 34.4204 104.965 34.4451 105.054 34.4451C105.143 34.4451 105.214 34.4204 105.266 34.3681C105.318 34.3157 105.346 34.2265 105.346 34.0972C105.346 33.974 105.318 33.8662 105.263 33.7739C105.208 33.6815 105.14 33.5922 105.06 33.5091C104.977 33.426 104.891 33.3429 104.799 33.2597C104.706 33.1766 104.617 33.0842 104.537 32.9857C104.454 32.8872 104.386 32.7733 104.334 32.647C104.279 32.5208 104.251 32.373 104.251 32.2037L104.242 32.2006ZM106.943 32.2006C106.943 31.9112 107.01 31.6895 107.149 31.5325C107.287 31.3786 107.493 31.2985 107.77 31.2985C108.047 31.2985 108.253 31.3755 108.391 31.5325C108.53 31.6865 108.598 31.9112 108.598 32.2006V32.3145H108.065V32.1668C108.065 32.0375 108.041 31.9451 107.992 31.8927C107.942 31.8404 107.875 31.8127 107.785 31.8127C107.696 31.8127 107.629 31.8404 107.579 31.8927C107.53 31.9451 107.506 32.0375 107.506 32.1668C107.506 32.2899 107.533 32.3977 107.589 32.49C107.644 32.5824 107.712 32.6717 107.792 32.7548C107.875 32.8379 107.961 32.9211 108.053 33.0042C108.145 33.0873 108.235 33.1797 108.315 33.2782C108.398 33.3767 108.465 33.4906 108.518 33.6169C108.573 33.7431 108.601 33.8909 108.601 34.0602C108.601 34.3496 108.53 34.5713 108.388 34.7283C108.247 34.8822 108.038 34.9623 107.764 34.9623C107.49 34.9623 107.281 34.8853 107.139 34.7283C106.998 34.5744 106.927 34.3496 106.927 34.0602V33.8416H107.459V34.0972C107.459 34.2265 107.487 34.3157 107.539 34.3681C107.592 34.4204 107.662 34.4451 107.752 34.4451C107.841 34.4451 107.912 34.4204 107.964 34.3681C108.016 34.3157 108.044 34.2265 108.044 34.0972C108.044 33.974 108.016 33.8662 107.961 33.7739C107.905 33.6815 107.838 33.5922 107.758 33.5091C107.675 33.426 107.589 33.3429 107.496 33.2597C107.404 33.1766 107.315 33.0842 107.235 32.9857C107.152 32.8872 107.084 32.7733 107.032 32.647C106.976 32.5208 106.949 32.373 106.949 32.2037L106.943 32.2006ZM109.487 32.8502H110.259V33.3613H109.487V34.4081H110.455V34.9192H108.924V31.3416H110.455V31.8527H109.487V32.8502ZM111.978 34.9192C111.972 34.8946 111.966 34.873 111.957 34.8515C111.95 34.8299 111.944 34.8053 111.938 34.7745C111.932 34.7437 111.929 34.7037 111.929 34.6575C111.929 34.6082 111.929 34.5497 111.929 34.4789V33.9155C111.929 33.7493 111.901 33.6323 111.843 33.5614C111.784 33.4937 111.692 33.4598 111.563 33.4598H111.369V34.9161H110.806V31.3386H111.655C111.947 31.3386 112.16 31.4063 112.292 31.5418C112.424 31.6772 112.489 31.8835 112.489 32.1606V32.4408C112.489 32.8071 112.366 33.0504 112.12 33.1674C112.261 33.2259 112.36 33.3213 112.412 33.4506C112.464 33.583 112.492 33.74 112.492 33.9278V34.4789C112.492 34.5682 112.495 34.6452 112.501 34.7129C112.507 34.7806 112.526 34.8453 112.553 34.9161H111.981L111.978 34.9192ZM111.366 31.8527V32.9518H111.584C111.689 32.9518 111.772 32.9241 111.834 32.8687C111.892 32.8133 111.923 32.7148 111.923 32.5732V32.2191C111.923 32.0898 111.901 31.9943 111.855 31.9389C111.809 31.8804 111.738 31.8527 111.637 31.8527H111.366ZM113.695 34.2603L114.122 31.3416H114.639L114.088 34.9192H113.252L112.701 31.3416H113.267L113.695 34.2603ZM114.9 31.3416H115.463V34.9192H114.9V31.3416ZM117.5 33.5861V34.0602C117.5 34.3496 117.429 34.5713 117.287 34.7283C117.146 34.8822 116.937 34.9623 116.663 34.9623C116.389 34.9623 116.18 34.8853 116.039 34.7283C115.897 34.5744 115.826 34.3496 115.826 34.0602V32.2006C115.826 31.9112 115.897 31.6895 116.039 31.5325C116.18 31.3786 116.389 31.2985 116.663 31.2985C116.937 31.2985 117.146 31.3755 117.287 31.5325C117.429 31.6865 117.5 31.9112 117.5 32.2006V32.5485H116.968V32.1668C116.968 32.0375 116.94 31.9451 116.888 31.8927C116.835 31.8404 116.765 31.8127 116.675 31.8127C116.586 31.8127 116.515 31.8404 116.463 31.8927C116.411 31.9451 116.383 32.0375 116.383 32.1668V34.0972C116.383 34.2265 116.411 34.3157 116.463 34.3681C116.515 34.4204 116.586 34.4451 116.675 34.4451C116.765 34.4451 116.835 34.4204 116.888 34.3681C116.94 34.3157 116.968 34.2265 116.968 34.0972V33.5861H117.5ZM118.404 32.8502H119.176V33.3613H118.404V34.4081H119.373V34.9192H117.841V31.3416H119.373V31.8527H118.404V32.8502Z" fill="#912302"/>
<path d="M72.9982 31.3416H73.5611V34.4081H74.4839V34.9192H72.9982V31.3416ZM75.2437 34.0972C75.2437 34.2265 75.2714 34.3188 75.3237 34.3712C75.376 34.4235 75.4467 34.4512 75.5359 34.4512C75.6252 34.4512 75.6959 34.4235 75.7482 34.3712C75.8005 34.3188 75.8282 34.2265 75.8282 34.0972V32.1668C75.8282 32.0375 75.8005 31.9451 75.7482 31.8927C75.6959 31.8404 75.6252 31.8127 75.5359 31.8127C75.4467 31.8127 75.376 31.8404 75.3237 31.8927C75.2714 31.9451 75.2437 32.0375 75.2437 32.1668V34.0972ZM74.6808 32.2006C74.6808 31.9112 74.7546 31.6895 74.8992 31.5325C75.0469 31.3786 75.256 31.2985 75.5329 31.2985C75.8097 31.2985 76.0189 31.3755 76.1665 31.5325C76.3142 31.6865 76.3849 31.9112 76.3849 32.2006V34.0602C76.3849 34.3496 76.3111 34.5713 76.1665 34.7283C76.0189 34.8822 75.8097 34.9623 75.5329 34.9623C75.256 34.9623 75.0469 34.8853 74.8992 34.7283C74.7516 34.5744 74.6808 34.3496 74.6808 34.0602V32.2006ZM77.5908 32.9272H78.3782V34.0633C78.3782 34.3527 78.3075 34.5744 78.166 34.7314C78.0245 34.8853 77.8153 34.9654 77.5415 34.9654C77.2678 34.9654 77.0586 34.8884 76.9171 34.7314C76.7756 34.5774 76.7049 34.3527 76.7049 34.0633V32.2037C76.7049 31.9143 76.7756 31.6926 76.9171 31.5356C77.0586 31.3817 77.2678 31.3016 77.5415 31.3016C77.8153 31.3016 78.0245 31.3786 78.166 31.5356C78.3075 31.6895 78.3782 31.9143 78.3782 32.2037V32.5516H77.8461V32.1698C77.8461 32.0405 77.8184 31.9482 77.7661 31.8958C77.7138 31.8435 77.6431 31.8158 77.5538 31.8158C77.4646 31.8158 77.3939 31.8435 77.3416 31.8958C77.2893 31.9482 77.2616 32.0405 77.2616 32.1698V34.1002C77.2616 34.2295 77.2893 34.3188 77.3416 34.3712C77.3939 34.4235 77.4646 34.4481 77.5538 34.4481C77.6431 34.4481 77.7138 34.4235 77.7661 34.3712C77.8184 34.3188 77.8461 34.2295 77.8461 34.1002V33.4414H77.5908V32.9272ZM78.7381 31.3416H79.3011V34.9192H78.7381V31.3416ZM79.6364 32.2006C79.6364 31.9112 79.704 31.6895 79.8424 31.5325C79.9809 31.3786 80.187 31.2985 80.4638 31.2985C80.7407 31.2985 80.9468 31.3755 81.0852 31.5325C81.2236 31.6865 81.2913 31.9112 81.2913 32.2006V32.3145H80.7591V32.1668C80.7591 32.0375 80.7345 31.9451 80.6853 31.8927C80.6361 31.8404 80.5684 31.8127 80.4792 31.8127C80.39 31.8127 80.3223 31.8404 80.2731 31.8927C80.2239 31.9451 80.1993 32.0375 80.1993 32.1668C80.1993 32.2899 80.227 32.3977 80.2823 32.49C80.3377 32.5824 80.4054 32.6717 80.4853 32.7548C80.5684 32.8379 80.6545 32.9211 80.7468 33.0042C80.8391 33.0873 80.9283 33.1797 81.0083 33.2782C81.0913 33.3767 81.159 33.4906 81.2113 33.6169C81.2667 33.7431 81.2943 33.8909 81.2943 34.0602C81.2943 34.3496 81.2236 34.5713 81.0821 34.7283C80.9406 34.8822 80.7314 34.9623 80.4577 34.9623C80.1839 34.9623 79.9747 34.8853 79.8332 34.7283C79.6917 34.5744 79.621 34.3496 79.621 34.0602V33.8416H80.1531V34.0972C80.1531 34.2265 80.1808 34.3157 80.2331 34.3681C80.2854 34.4204 80.3561 34.4451 80.4454 34.4451C80.5346 34.4451 80.6053 34.4204 80.6576 34.3681C80.7099 34.3157 80.7376 34.2265 80.7376 34.0972C80.7376 33.974 80.7099 33.8662 80.6545 33.7739C80.5992 33.6815 80.5315 33.5922 80.4515 33.5091C80.3685 33.426 80.2823 33.3429 80.19 33.2597C80.0978 33.1766 80.0086 33.0842 79.9286 32.9857C79.8455 32.8872 79.7778 32.7733 79.7256 32.647C79.6702 32.5208 79.6425 32.373 79.6425 32.2037L79.6364 32.2006ZM83.1892 31.3416V31.8527H82.6017V34.9192H82.0388V31.8527H81.4512V31.3416H83.1892ZM83.4353 31.3416H83.9982V34.9192H83.4353V31.3416ZM86.0346 33.5861V34.0602C86.0346 34.3496 85.9638 34.5713 85.8223 34.7283C85.6808 34.8822 85.4717 34.9623 85.1979 34.9623C84.9241 34.9623 84.7149 34.8853 84.5734 34.7283C84.4319 34.5744 84.3612 34.3496 84.3612 34.0602V32.2006C84.3612 31.9112 84.4319 31.6895 84.5734 31.5325C84.7149 31.3786 84.9241 31.2985 85.1979 31.2985C85.4717 31.2985 85.6808 31.3755 85.8223 31.5325C85.9638 31.6865 86.0346 31.9112 86.0346 32.2006V32.5485H85.5024V32.1668C85.5024 32.0375 85.4747 31.9451 85.4224 31.8927C85.3701 31.8404 85.2994 31.8127 85.2102 31.8127C85.121 31.8127 85.0502 31.8404 84.9979 31.8927C84.9456 31.9451 84.918 32.0375 84.918 32.1668V34.0972C84.918 34.2265 84.9456 34.3157 84.9979 34.3681C85.0502 34.4204 85.121 34.4451 85.2102 34.4451C85.2994 34.4451 85.3701 34.4204 85.4224 34.3681C85.4747 34.3157 85.5024 34.2265 85.5024 34.0972V33.5861H86.0346Z" fill="#912302"/>
<path d="M44.2739 43.0133C41.5392 43.0133 39.1922 42.1512 37.2389 40.4302C35.2856 38.7092 34.3074 36.4986 34.3074 33.7985V8.86039H40.7579V33.8016C40.7579 35.8367 41.9299 36.8527 44.2769 36.8527H60.5155L55.6461 43.0133H44.2739Z" fill="#912302"/>
<path fill-rule="evenodd" clip-rule="evenodd" d="M3.81433 23.2752L0 23.1367C0.227629 23.4199 2.54391 25.298 2.94687 25.4858L1.6457 29.168C2.72232 28.6569 3.83586 27.6163 4.86634 27.1237C5.40158 27.3916 7.08726 28.9186 7.88396 29.4297L6.89347 25.6736C7.41333 25.4365 9.80651 23.8541 10.0587 23.5523L6.22596 23.3892C6.12445 22.9366 5.42311 20.1841 5.1678 19.8024L3.81125 23.2722L3.81433 23.2752Z" fill="#912302"/>
<path fill-rule="evenodd" clip-rule="evenodd" d="M4.5249 37.3299C4.63871 37.4007 4.87557 37.6501 5.03553 37.7886L6.73044 39.1186L5.78609 41.791C6.55818 41.4247 7.42871 40.5564 8.2131 40.304C8.86831 40.7997 9.72961 41.5786 10.4156 41.9665L9.73576 39.2233L12.0182 37.6162L9.14515 37.49C8.98212 36.591 8.67451 35.578 8.42228 34.7714C7.97009 35.3779 7.81629 36.9912 7.20108 37.4099L4.52182 37.3299H4.5249Z" fill="#912302"/>
<path fill-rule="evenodd" clip-rule="evenodd" d="M8.50841 8.90349L5.73379 8.8296C6.00449 9.27295 7.40717 10.2151 7.89319 10.6522L6.94576 13.3092C7.55175 12.989 8.82832 11.9977 9.39431 11.8314C10.111 12.3117 10.8739 12.9983 11.5537 13.5001L10.8678 10.7939C11.3722 10.3813 12.7995 9.59622 13.1687 9.1344L10.3356 9.01741C10.1849 8.21077 9.6527 7.03775 9.68347 6.29885C9.52043 6.43739 9.60656 6.33271 9.47429 6.53591C9.19745 6.96694 8.88369 8.34008 8.51148 8.90657" fill="#912302"/>
<path fill-rule="evenodd" clip-rule="evenodd" d="M13.7623 47.5022C13.9654 47.6653 14.2545 47.9363 14.5621 48.1856C14.8666 48.432 15.125 48.589 15.3865 48.8815L14.6944 50.8611C15.3373 50.5286 15.8602 50.0452 16.4785 49.762C17.1522 50.153 17.5428 50.6456 18.2103 50.9997L17.6659 48.9338C18.155 48.549 18.8409 48.161 19.3885 47.7238L17.3213 47.5976C17.0076 47.0311 16.9768 46.1352 16.6477 45.6672C16.4754 45.9412 16.3432 46.3353 16.2293 46.6493C15.8202 47.8008 16.1186 47.576 13.7623 47.5022Z" fill="#912302"/>
<path fill-rule="evenodd" clip-rule="evenodd" d="M17.0814 1.97316L14.9651 1.89927C15.3865 2.32414 16.0848 2.9245 16.5862 3.16157L15.894 5.23667C16.62 4.92263 17.0568 4.39616 17.7797 4.15294C18.198 4.63015 18.9086 5.06733 19.3885 5.42139L18.8286 3.27856C19.2531 3.12154 20.2744 2.42882 20.5789 2.14249L18.4503 2.03166L17.8873 -0.00341797L17.0814 1.97008V1.97316Z" fill="#912302"/>
</g>
<defs>
<clipPath id="clip0_2531_9753">
<rect width="133" height="51" fill="white"/>
</clipPath>
</defs>
</svg>
