<svg width="17" height="17" viewBox="0 0 17 17" fill="none" xmlns="http://www.w3.org/2000/svg">
<path d="M16.8013 10.3997V16.114H13.372V10.7824C13.372 9.44311 12.8759 8.52908 11.6346 8.52908C10.6871 8.52908 10.1232 9.14507 9.87508 9.74094C9.78461 9.95396 9.76132 10.2505 9.76132 10.5486V16.114H6.33085C6.33085 16.114 6.37705 7.08411 6.33085 6.14855H9.76099V7.56111C9.75403 7.57167 9.74499 7.58306 9.73845 7.5933H9.76099V7.56111C10.2167 6.88305 11.0306 5.91443 12.8523 5.91443C15.1093 5.9144 16.8013 7.33874 16.8013 10.3997ZM2.74243 1.34473C1.56887 1.34473 0.80127 2.08832 0.80127 3.06618C0.80127 4.02272 1.54667 4.78889 2.6969 4.78889H2.71982C3.91611 4.78889 4.66009 4.02287 4.66009 3.06618C4.63755 2.08832 3.91611 1.34473 2.74243 1.34473ZM1.00501 16.114H4.43418V6.14855H1.00501V16.114Z" fill="#1870B1"/>
</svg>
