<svg width="16" height="17" viewBox="0 0 16 17" fill="none" xmlns="http://www.w3.org/2000/svg">
<path d="M0.980919 8.30554C0.980919 8.30554 8.05733 5.23224 10.5116 4.1501C11.4524 3.71724 14.6429 2.33209 14.6429 2.33209C14.6429 2.33209 16.1154 1.72609 15.9927 3.19781C15.9518 3.80381 15.6246 5.92482 15.2974 8.21897C14.8065 11.4654 14.2748 15.0148 14.2748 15.0148C14.2748 15.0148 14.193 16.0104 13.4976 16.1836C12.8022 16.3567 11.6569 15.5776 11.4524 15.4044C11.2888 15.2746 8.38457 13.3267 7.32106 12.3744C7.03473 12.1147 6.7075 11.5953 7.36196 10.9893C8.83451 9.56083 10.5934 7.78611 11.6569 6.66068C12.1477 6.14125 12.6386 4.92924 10.5934 6.40096C7.6892 8.52197 4.82591 10.5131 4.82591 10.5131C4.82591 10.5131 4.17144 10.946 2.94432 10.5564C1.71719 10.1668 0.285549 9.6474 0.285549 9.6474C0.285549 9.6474 -0.69615 8.99811 0.980919 8.30554Z" fill="#35AEE2"/>
</svg>
