<svg width="16" height="17" viewBox="0 0 16 17" fill="none" xmlns="http://www.w3.org/2000/svg">
<path d="M14.362 5.46558C14.3717 5.60663 14.3717 5.74768 14.3717 5.89003C14.3717 10.2276 11.0697 15.23 5.03173 15.23V15.2274C3.2481 15.23 1.50152 14.7191 0 13.7558C0.259354 13.787 0.520008 13.8026 0.781312 13.8033C2.25944 13.8046 3.69531 13.3086 4.85818 12.3953C3.4535 12.3687 2.22173 11.4528 1.79143 10.1157C2.28349 10.2106 2.79049 10.1911 3.27345 10.0592C1.74203 9.74979 0.64026 8.40427 0.64026 6.84165V6.80005C1.09657 7.0542 1.60748 7.19525 2.13008 7.21085C0.687711 6.24689 0.243104 4.32806 1.11412 2.82783C2.78074 4.87862 5.23973 6.12534 7.87942 6.25729C7.61487 5.11717 7.97627 3.92245 8.82909 3.12099C10.1512 1.87817 12.2306 1.94187 13.4734 3.26334C14.2086 3.11839 14.9132 2.84863 15.558 2.46643C15.3129 3.22629 14.8001 3.87175 14.115 4.28191C14.7656 4.20521 15.4013 4.031 16 3.76515C15.5593 4.42556 15.0042 5.00082 14.362 5.46558Z" fill="#1D9BF0"/>
</svg>
