<svg width="16" height="17" viewBox="0 0 16 17" fill="none" xmlns="http://www.w3.org/2000/svg">
<path fill-rule="evenodd" clip-rule="evenodd" d="M4.33786 6.93957C4.31029 6.57328 4.38218 6.20634 4.54603 5.87729C4.59594 5.74619 4.66533 5.6233 4.75186 5.51273C4.90632 5.30457 5.11272 5.14024 5.35056 5.03602C5.35056 5.03602 6.05747 4.96689 6.11863 5.06157C6.44622 5.62815 6.72027 6.22381 6.93726 6.8409C7.04548 7.24448 6.47738 7.70513 6.47738 7.70513C6.47738 7.70513 6.11746 7.88794 6.47738 8.34062C6.74555 8.67846 7.20192 9.2672 7.47598 9.48457C7.76547 9.7206 8.07345 9.93318 8.39696 10.1203C9.06622 10.49 9.19089 10.4506 9.19089 10.4506C9.19089 10.4506 9.31439 10.5009 9.65078 10.044C9.83074 9.80144 10.0272 9.51668 10.2142 9.45926C10.4306 9.39329 12.1784 10.3933 12.109 10.3235C12.2314 10.4464 12.1349 10.8405 12.1349 10.8405C12.1349 10.8405 12.1726 11.2814 11.5068 11.7897C11.0681 12.125 10.3424 12.2048 10.3424 12.2048C9.88544 12.1722 9.43633 12.0694 9.01093 11.9001C8.30168 11.6337 7.55242 11.4096 6.57969 10.5275C5.90396 9.91619 5.31691 9.21417 4.8354 8.44163C4.32375 7.56263 4.33786 6.93957 4.33786 6.93957ZM8.15347 16.3736C6.79728 16.3755 5.46382 16.0265 4.28374 15.3607L0 16.7295L1.40792 12.5617C0.519424 11.0793 0.148235 9.34559 0.352202 7.63096C0.556168 5.91634 1.32382 4.31713 2.53551 3.08266C3.74719 1.84819 5.33481 1.04784 7.05084 0.806371C8.76686 0.564906 10.5149 0.895902 12.0223 1.74776C13.5298 2.59961 14.7119 3.92445 15.3846 5.51573C16.0572 7.10701 16.1824 8.8753 15.7408 10.5449C15.2991 12.2145 14.3154 13.6916 12.943 14.746C11.5705 15.8003 9.88653 16.3726 8.15347 16.3736ZM8.14052 2.06165C6.93523 2.05719 5.75206 2.38393 4.72108 3.00597C3.69009 3.628 2.85122 4.52123 2.29673 5.58743C1.74224 6.65364 1.49359 7.85154 1.57812 9.04941C1.66264 10.2473 2.07709 11.3987 2.77586 12.3772L2.15129 14.2638L2.15364 14.2656L1.97132 14.7977L3.03109 14.4842C3.0294 14.4822 3.02741 14.4805 3.0252 14.4791L4.479 14.0232C5.3302 14.5961 6.30443 14.962 7.32338 15.0915C8.34233 15.221 9.37756 15.1105 10.3459 14.7689C11.3141 14.4273 12.1885 13.8641 12.8985 13.1246C13.6086 12.3851 14.1346 11.4899 14.4343 10.511C14.7339 9.53211 14.7988 8.49683 14.6238 7.4884C14.4488 6.47996 14.0387 5.52651 13.4266 4.70469C12.8144 3.88287 12.0173 3.21562 11.0992 2.75658C10.1811 2.29754 9.16773 2.05952 8.14052 2.06165Z" fill="#00C232"/>
</svg>
