<svg width="17" height="17" viewBox="0 0 17 17" fill="none" xmlns="http://www.w3.org/2000/svg">
<path fill-rule="evenodd" clip-rule="evenodd" d="M9.98038 2.27149H10.9676V5.3555C10.9676 5.76425 10.9405 6.18581 11.4612 6.18581C11.7882 6.18581 11.8314 5.87978 11.8314 5.23689V2.27149H12.8187V6.77889H11.8314V6.54166L11.4612 6.42304C11.4105 6.55931 11.3258 6.68151 11.2144 6.77889C11.1074 6.85553 10.9776 6.89711 10.8442 6.8975C10.6719 6.89866 10.5021 6.85785 10.3506 6.77889C10.2461 6.72448 10.1604 6.64206 10.1038 6.54166C10.0445 6.4296 10.0029 6.30966 9.98038 6.18581C9.96557 6.04157 9.98038 5.68169 9.98038 5.23689V2.27149ZM6.64849 4.16934C6.64849 3.70342 6.56951 3.35778 6.64849 3.1018C6.74842 2.86156 6.9202 2.65518 7.1421 2.50873C7.35178 2.34766 7.61424 2.26357 7.88252 2.27149C8.13546 2.2571 8.38853 2.29764 8.62294 2.39011C8.77884 2.47273 8.9072 2.59611 8.99315 2.74596C9.10105 2.89055 9.18435 3.0507 9.23996 3.22042C9.31468 3.49161 9.3561 3.77028 9.36336 4.05073V4.88104C9.35688 5.20063 9.31552 5.51868 9.23996 5.82996C9.19595 6.04045 9.11231 6.24145 8.99315 6.42304C8.91112 6.57569 8.78175 6.70004 8.62294 6.77889C8.42939 6.86321 8.21832 6.90379 8.00592 6.8975C7.75366 6.9016 7.50274 6.8614 7.2655 6.77889C7.11787 6.74204 6.98746 6.65847 6.89529 6.54166C6.78031 6.35804 6.69697 6.15776 6.64849 5.94858C6.64478 5.95985 6.64849 5.4307 6.64849 4.99965V4.16934ZM4.30382 0.729492L5.04424 3.1018C5.18492 2.45677 5.44654 1.65956 5.66126 0.729492H6.40168L5.53785 4.28796V6.77889H4.67403V4.28796L3.5634 0.729492H4.30382ZM15.9037 14.6075C15.8418 15.142 15.5845 15.638 15.1778 16.0072C14.771 16.3765 14.2412 16.595 13.6825 16.624C10.2654 16.7647 6.85128 16.7647 3.44 16.624C2.27877 16.5516 1.22367 15.7185 1.09533 14.6075C0.968224 12.8304 0.968224 11.047 1.09533 9.26982C1.22243 8.15922 2.27877 7.21267 3.44 7.13473C6.8558 6.99584 10.142 6.99584 13.5591 7.13473C14.7191 7.21267 15.7754 8.15922 15.9037 9.26982C16.0321 11.0469 16.0321 12.8304 15.9037 14.6075ZM8.00592 6.42304C8.49954 6.42304 8.37613 5.75085 8.37613 5.59273V3.69488C8.37613 3.22042 8.29716 2.86991 8.00592 2.86457C7.70852 2.85912 7.63571 3.22042 7.63571 3.69488V5.59273C7.63571 5.87966 7.62831 6.42304 8.00592 6.42304ZM2.32936 9.62566H3.31659V14.8447H4.42722V9.62566H5.41445V8.67674H2.32936V9.62566ZM7.2655 13.0655C7.2655 13.623 7.15444 13.7179 7.1421 13.7772C7.1159 13.8502 7.0655 13.913 6.99863 13.9558C6.93176 13.9987 6.8521 14.0193 6.77189 14.0144C6.61023 14.0144 6.56334 13.9152 6.52508 13.7772C6.50904 13.7194 6.52508 13.5964 6.52508 13.0655V10.1001H5.53785V14.0144C5.55853 14.2156 5.59986 14.4142 5.66126 14.6075C5.71687 14.7086 5.80287 14.7913 5.90806 14.8447C6.01516 14.9212 6.14487 14.9628 6.27828 14.9634C6.41113 14.9597 6.53991 14.9184 6.64849 14.8447C6.75893 14.7466 6.84352 14.6246 6.89529 14.4889L7.2655 14.6075V14.8447H8.12933V10.1001H7.2655V13.0655ZM11.4612 10.3374C11.4041 10.2373 11.3185 10.155 11.2144 10.1001C11.0597 10.0295 10.8919 9.98921 10.7208 9.98151C10.5986 9.98151 10.5801 10.0376 10.474 10.1001C10.437 10.1231 9.85698 10.8118 9.85698 10.8118V8.67674H8.86975V14.8447H9.85698V14.6075L9.98038 14.2517L10.2272 14.4889C10.321 14.6373 10.3642 14.7736 10.474 14.8447C10.5841 14.9155 10.712 14.9564 10.8442 14.9634C11.1552 14.9634 11.3551 14.7609 11.4612 14.4889C11.5265 14.2966 11.5679 14.0975 11.5846 13.8958V11.4049C11.5846 11.4144 11.5834 10.8078 11.5846 10.6932C11.5646 10.5688 11.5229 10.4485 11.4612 10.3374ZM10.5974 13.1841C10.5974 13.6223 10.5999 13.7754 10.5974 13.7772C10.5701 13.848 10.5198 13.9084 10.4541 13.9497C10.3883 13.991 10.3105 14.0109 10.2321 14.0065C10.1528 14.009 10.0746 13.9885 10.0077 13.9476C9.94074 13.9067 9.8882 13.8473 9.85698 13.7772C9.83476 13.7126 9.85698 13.5853 9.85698 13.1841V11.998C9.85698 11.5803 9.83723 11.3446 9.85698 11.2863C9.88774 11.2162 9.93923 11.1564 10.005 11.1142C10.0709 11.0721 10.1481 11.0494 10.2272 11.049C10.3067 11.0477 10.3847 11.0697 10.4509 11.1121C10.517 11.1545 10.5681 11.2152 10.5974 11.2863C10.6184 11.3508 10.5974 11.603 10.5974 11.998V13.1841ZM13.1889 12.5911H14.9165V12.1166C14.9165 11.6551 14.882 11.0582 14.7931 10.8118C14.7104 10.573 14.5093 10.4797 14.2995 10.3374C14.0873 10.1808 13.8266 10.0972 13.5591 10.1001C13.2987 10.1001 13.0173 10.1029 12.8187 10.2187C12.5966 10.365 12.4248 10.5715 12.325 10.8118C12.2325 11.0403 12.2016 11.4183 12.2016 11.998V13.4214C12.1955 13.806 12.3075 14.1838 12.5237 14.5075C12.6469 14.6473 12.8048 14.755 12.9828 14.8207C13.2037 14.9127 13.4417 14.9613 13.6825 14.9634C13.8557 14.9728 14.0279 14.9314 14.1761 14.8447C14.3353 14.7636 14.5624 14.6501 14.6697 14.4889C14.8869 13.9498 14.9165 14.1322 14.9165 13.3027V13.0655H13.9293V13.54C13.9293 13.8078 13.9688 14.0282 13.9293 14.1331C13.8993 14.2036 13.848 14.2639 13.782 14.3062C13.716 14.3484 13.6384 14.3708 13.5591 14.3703C13.2493 14.374 13.1889 14.0786 13.1889 13.6586V12.5911ZM13.1889 11.4049C13.1889 11.0167 13.1704 11.102 13.1889 11.049C13.2193 10.9788 13.2707 10.9188 13.3366 10.8766C13.4025 10.8343 13.4799 10.8118 13.5591 10.8118C13.6383 10.8118 13.7157 10.8343 13.7815 10.8766C13.8474 10.9188 13.8988 10.9788 13.9293 11.049C13.9466 11.1035 13.9293 11.0432 13.9293 11.4049V12.1166H13.1889V11.4049Z" fill="#FF0303"/>
</svg>
