<svg width="133" height="51" viewBox="0 0 133 51" fill="none" xmlns="http://www.w3.org/2000/svg">
<g clip-path="url(#clip0_2531_10260)">
<path fill-rule="evenodd" clip-rule="evenodd" d="M46.2239 44.75H50.7181C38.6353 55.1378 21.0678 51.4987 13.6084 39.5592C21.7415 49.6453 35.6423 52.5486 46.2239 44.75Z" fill="#1E434C"/>
<path d="M107.875 22.9523L118.016 22.983C120.751 22.983 123.08 23.8051 124.993 25.4461C126.986 27.2071 127.983 29.4362 127.983 32.1363V33.8973C127.983 36.4804 126.968 38.6602 124.934 40.4397C122.901 42.2193 120.594 43.109 118.016 43.109H80.8882L85.7114 37.0069H118.016C118.878 37.0069 119.677 36.7052 120.419 36.0986C121.16 35.4921 121.532 34.7594 121.532 33.8973V32.1363C121.532 30.1012 120.36 29.0852 118.013 29.0852L97.7266 29.0267C94.9889 29.0267 92.6449 28.1769 90.6916 26.4744C89.5412 25.4738 88.7321 24.3008 88.2584 22.9523H107.875Z" fill="#1E434C"/>
<path d="M128.1 15.0583H103.051L107.868 8.96535L133 8.86067L128.1 15.0583Z" fill="#1E434C"/>
<path d="M88.6368 32.558L88.4799 32.3672C88.4215 32.2994 88.3599 32.1824 88.3599 32.0624C88.3599 31.8838 88.4799 31.7514 88.6983 31.7514C88.9475 31.7514 89.0459 31.9146 89.0459 32.0685C89.0459 32.2009 88.9629 32.3271 88.8337 32.4164L88.6399 32.558H88.6368ZM89.2212 34.079C89.1566 34.1436 89.0059 34.2914 88.8952 34.3684C88.7691 34.4515 88.646 34.5069 88.4984 34.5069C88.1662 34.5069 87.9508 34.2575 87.9508 33.9743C87.9508 33.8481 87.9939 33.6849 88.1415 33.5248C88.243 33.4139 88.4092 33.297 88.526 33.2354L89.2212 34.079ZM89.9718 33.2385L89.5719 33.6941L88.9505 32.9337C89.1813 32.7582 89.3043 32.6381 89.3873 32.5273C89.4519 32.4441 89.5411 32.2964 89.5411 32.0685C89.5411 31.6929 89.2551 31.3081 88.6983 31.3081C88.1415 31.3081 87.8647 31.7206 87.8647 32.1209C87.8647 32.4595 88.0923 32.7274 88.2123 32.8505C88.1815 32.8721 88.0277 32.9768 87.9324 33.0445C87.6647 33.2446 87.4248 33.4878 87.4248 33.9527C87.4248 34.5223 87.8216 34.9626 88.4799 34.9626C88.8121 34.9626 89.0336 34.8733 89.2489 34.7194C89.3597 34.6393 89.4642 34.5439 89.5442 34.4607L89.8918 34.8948H90.547L89.898 34.082L90.3132 33.6018L89.9718 33.2415V33.2385Z" fill="#1E434C"/>
<path fill-rule="evenodd" clip-rule="evenodd" d="M13.31 12.8477C32.4001 -14.2733 68.8761 10.2338 57.4854 35.1165H53.9756C63.6314 8.56819 30.9513 -9.68898 13.31 12.8477Z" fill="#1E434C"/>
<path fill-rule="evenodd" clip-rule="evenodd" d="M21.8492 16.5361C21.3662 16.5545 20.8802 16.5761 20.3973 16.5946C21.1201 13.5558 22.369 10.9019 24.1408 8.62977C22.852 11.6439 22.0891 14.2793 21.8492 16.533" fill="#1E434C"/>
<path fill-rule="evenodd" clip-rule="evenodd" d="M29.647 15.3846C29.1518 15.5139 28.6565 15.6401 28.1613 15.7695C29.1333 12.2012 30.3514 9.65808 31.8218 8.14332C30.7144 10.3169 29.9884 12.7307 29.647 15.3877" fill="#1E434C"/>
<path fill-rule="evenodd" clip-rule="evenodd" d="M42.4927 33.9343C44.3691 32.0531 45.9532 30.0396 47.2483 27.8937C46.4885 30.1751 45.1319 32.5396 43.1786 34.9841C42.9848 34.9256 42.8157 34.8394 42.7141 34.7194C42.5511 34.5315 42.505 34.199 42.4927 33.9343ZM42.4927 25.7016C43.0156 25.3291 43.5385 24.9473 44.0584 24.5563C43.5693 25.0735 43.0464 25.5877 42.4927 26.1018V25.7016ZM42.4927 17.5059C43.557 16.5545 44.5782 15.5293 45.5503 14.4271C44.689 15.7787 43.6708 17.0625 42.4927 18.2817V17.5059ZM42.4927 9.52261C43.0925 9.04848 43.6831 8.5528 44.2737 8.03556C43.7354 8.69442 43.1417 9.33788 42.4927 9.96596V9.52261ZM41.9113 44.5468L41.9943 44.5653C42.2066 44.6022 42.4188 44.633 42.6311 44.6577H42.6588L42.6865 44.6638L42.7388 44.67L42.8033 44.6761H42.831L42.871 44.6823L42.9756 44.6915H43.0064C43.1417 44.7069 43.2771 44.7162 43.4124 44.7254C43.4586 44.7254 43.5047 44.7315 43.5508 44.7346H43.557L43.6708 44.7408H43.76C41.7483 46.117 39.0782 47.0837 35.753 47.6441C6.07508 52.0775 0.467407 3.48512 34.744 4.66429C25.4266 5.30468 19.0961 9.47335 15.7585 17.1765C21.7046 17.9154 27.3092 17.2781 32.5754 15.2615V16.4345C31.6034 16.884 30.5883 17.3212 29.527 17.746C29.6624 20.3261 29.9362 22.3026 30.3483 23.6696C29.89 23.8205 29.161 23.959 28.1582 24.0791C27.8844 22.4042 27.7429 20.5385 27.7306 18.4819C25.7773 19.0422 23.8055 19.5286 21.8184 19.9412C22.0184 22.5212 22.2706 24.2915 22.5782 25.249C21.7507 25.326 20.9233 25.3999 20.0958 25.4769C19.782 23.2601 19.6836 21.4868 19.7974 20.1536C17.8103 20.2799 16.1031 20.3322 14.6819 20.3076C14.2759 21.9917 14.0636 24.0206 14.0452 26.3913C20.9971 26.7484 27.1738 25.8401 32.5785 23.6635V25.2798C32.1417 25.4984 31.6957 25.7108 31.2404 25.9233C31.7756 27.0101 32.1786 27.8136 32.5785 28.5679V30.5476C32.0925 30.8863 31.7141 31.1018 31.4373 31.1972C30.5298 29.9165 29.7577 28.5064 29.1271 26.967C27.1216 27.6843 25.3651 28.2662 23.8578 28.7188C24.5438 30.2366 25.3651 31.7083 26.3156 33.1369C25.4082 33.3862 24.5007 33.6387 23.5933 33.8881C22.529 32.1978 21.7015 30.68 21.1078 29.3346C17.9918 29.7471 15.8385 29.9842 14.645 30.0458C15.0326 31.8869 15.8078 33.808 16.9613 35.8092C22.246 35.2951 27.4507 33.8542 32.5723 31.4928V33.4694C31.3327 34.2514 30.0315 35.0426 28.6719 35.84C30.293 37.3702 31.9325 38.6633 33.5936 39.7162C32.9876 40.1472 32.3509 40.5229 31.6803 40.843C29.8746 40.0518 28.0382 38.7833 26.171 37.0377C23.7656 37.9213 21.5416 38.6171 19.496 39.1251C21.8861 41.582 24.2423 43.2537 26.5556 44.1435C29.4809 42.9058 32.1509 41.5542 34.5656 40.0795C35.0024 40.6645 35.51 41.2156 36.0944 41.7297C36.1621 41.7882 36.2298 41.8498 36.3005 41.9052C34.8702 43.1213 33.3106 44.3529 31.6157 45.6059C34.8825 46.1601 38.3123 45.803 41.9082 44.5407L41.9113 44.5468Z" fill="#1E434C"/>
<path d="M86.6067 8.86064H103.993L99.1694 14.9628H81.7834L86.6067 8.86064ZM64.0315 32.3979L64.0068 18.0754C64.0038 15.5324 65.022 13.3618 67.0552 11.5607C69.0885 9.75964 71.3925 8.86064 73.9733 8.86064H82.6263L77.803 14.9628H73.9702C73.112 14.9628 72.3092 15.2768 71.5647 15.9018C70.8234 16.5268 70.4512 17.2503 70.4512 18.0723V24.2638L64.0284 32.3948L64.0315 32.3979ZM77.0063 43.0135H73.9733C71.2387 43.0135 68.8916 42.1515 66.9383 40.4305C65.7787 39.4083 64.9635 38.2168 64.4929 36.8498L70.4574 29.3007V33.7988C70.4574 35.8338 71.6293 36.8498 73.9764 36.8498H81.8788L77.0094 43.0105L77.0063 43.0135Z" fill="#912302"/>
<path d="M93.4264 33.5863V34.0605C93.4264 34.3499 93.3556 34.5715 93.2141 34.7285C93.0726 34.8825 92.8634 34.9625 92.5897 34.9625C92.3159 34.9625 92.1067 34.8856 91.9652 34.7285C91.8237 34.5746 91.753 34.3499 91.753 34.0605V32.2009C91.753 31.9115 91.8237 31.6898 91.9652 31.5328C92.1067 31.3788 92.3159 31.2988 92.5897 31.2988C92.8634 31.2988 93.0726 31.3758 93.2141 31.5328C93.3556 31.6867 93.4264 31.9115 93.4264 32.2009V32.5488H92.8942V32.167C92.8942 32.0377 92.8665 31.9453 92.8142 31.893C92.7619 31.8407 92.6912 31.8129 92.602 31.8129C92.5128 31.8129 92.442 31.8407 92.3897 31.893C92.3374 31.9453 92.3098 32.0377 92.3098 32.167V34.0974C92.3098 34.2267 92.3374 34.316 92.3897 34.3683C92.442 34.4207 92.5128 34.4453 92.602 34.4453C92.6912 34.4453 92.7619 34.4207 92.8142 34.3683C92.8665 34.316 92.8942 34.2267 92.8942 34.0974V33.5863H93.4264ZM94.3061 31.3419V34.1005C94.3061 34.2298 94.3338 34.3191 94.3861 34.3714C94.4384 34.4237 94.5091 34.4484 94.5984 34.4484C94.6876 34.4484 94.7583 34.4237 94.8106 34.3714C94.8629 34.3191 94.8906 34.2298 94.8906 34.1005V31.3419H95.4227V34.0666C95.4227 34.356 95.352 34.5777 95.2105 34.7347C95.069 34.8886 94.8598 34.9687 94.586 34.9687C94.3123 34.9687 94.1031 34.8917 93.9616 34.7347C93.8201 34.5808 93.7494 34.356 93.7494 34.0666V31.3419H94.3123H94.3061ZM95.7303 32.2009C95.7303 31.9115 95.798 31.6898 95.9364 31.5328C96.0749 31.3788 96.281 31.2988 96.5578 31.2988C96.8347 31.2988 97.0408 31.3758 97.1792 31.5328C97.3176 31.6867 97.3853 31.9115 97.3853 32.2009V32.3148H96.8531V32.167C96.8531 32.0377 96.8285 31.9453 96.7793 31.893C96.7301 31.8407 96.6624 31.8129 96.5732 31.8129C96.484 31.8129 96.4163 31.8407 96.3671 31.893C96.3179 31.9453 96.2933 32.0377 96.2933 32.167C96.2933 32.2902 96.321 32.3979 96.3763 32.4903C96.4317 32.5826 96.4994 32.6719 96.5793 32.7551C96.6624 32.8382 96.7485 32.9213 96.8408 33.0044C96.9331 33.0876 97.0223 33.1799 97.1023 33.2784C97.1823 33.377 97.253 33.4909 97.3053 33.6171C97.3607 33.7433 97.3884 33.8911 97.3884 34.0605C97.3884 34.3499 97.3176 34.5715 97.1761 34.7285C97.0346 34.8825 96.8254 34.9625 96.5517 34.9625C96.2779 34.9625 96.0687 34.8856 95.9272 34.7285C95.7857 34.5746 95.715 34.3499 95.715 34.0605V33.8419H96.2471V34.0974C96.2471 34.2267 96.2748 34.316 96.3271 34.3683C96.3794 34.4207 96.4501 34.4453 96.5394 34.4453C96.6286 34.4453 96.6993 34.4207 96.7516 34.3683C96.8039 34.316 96.8316 34.2267 96.8316 34.0974C96.8316 33.9742 96.8039 33.8665 96.7485 33.7741C96.6932 33.6818 96.6255 33.5925 96.5455 33.5093C96.4624 33.4262 96.3763 33.3431 96.284 33.26C96.1918 33.1768 96.1026 33.0845 96.0226 32.986C95.9395 32.8874 95.8718 32.7735 95.8195 32.6473C95.7642 32.5211 95.7365 32.3733 95.7365 32.2039L95.7303 32.2009ZM99.2832 31.3419V31.853H98.6957V34.9194H98.1328V31.853H97.5452V31.3419H99.2832ZM100.046 34.0974C100.046 34.2267 100.074 34.3191 100.126 34.3714C100.178 34.4237 100.249 34.4515 100.338 34.4515C100.428 34.4515 100.498 34.4237 100.551 34.3714C100.603 34.3191 100.631 34.2267 100.631 34.0974V32.167C100.631 32.0377 100.603 31.9453 100.551 31.893C100.498 31.8407 100.428 31.8129 100.338 31.8129C100.249 31.8129 100.178 31.8407 100.126 31.893C100.074 31.9453 100.046 32.0377 100.046 32.167V34.0974ZM99.4832 32.2009C99.4832 31.9115 99.557 31.6898 99.7015 31.5328C99.8492 31.3788 100.058 31.2988 100.335 31.2988C100.612 31.2988 100.821 31.3758 100.969 31.5328C101.117 31.6867 101.187 31.9115 101.187 32.2009V34.0605C101.187 34.3499 101.113 34.5715 100.969 34.7285C100.821 34.8825 100.612 34.9625 100.335 34.9625C100.058 34.9625 99.8492 34.8856 99.7015 34.7285C99.5539 34.5746 99.4832 34.3499 99.4832 34.0605V32.2009ZM102.741 33.8819L103.122 31.3419H103.903V34.9194H103.371V32.3548L102.984 34.9194H102.452L102.033 32.3887V34.9194H101.544V31.3419H102.325L102.738 33.8819H102.741ZM104.242 32.2009C104.242 31.9115 104.31 31.6898 104.448 31.5328C104.586 31.3788 104.792 31.2988 105.069 31.2988C105.346 31.2988 105.552 31.3758 105.691 31.5328C105.829 31.6867 105.897 31.9115 105.897 32.2009V32.3148H105.365V32.167C105.365 32.0377 105.34 31.9453 105.291 31.893C105.242 31.8407 105.174 31.8129 105.085 31.8129C104.995 31.8129 104.928 31.8407 104.879 31.893C104.829 31.9453 104.805 32.0377 104.805 32.167C104.805 32.2902 104.832 32.3979 104.888 32.4903C104.943 32.5826 105.011 32.6719 105.091 32.7551C105.174 32.8382 105.26 32.9213 105.352 33.0044C105.445 33.0876 105.534 33.1799 105.617 33.2784C105.7 33.377 105.768 33.4909 105.82 33.6171C105.875 33.7433 105.903 33.8911 105.903 34.0605C105.903 34.3499 105.832 34.5715 105.691 34.7285C105.549 34.8825 105.34 34.9625 105.066 34.9625C104.792 34.9625 104.583 34.8856 104.442 34.7285C104.3 34.5746 104.23 34.3499 104.23 34.0605V33.8419H104.762V34.0974C104.762 34.2267 104.789 34.316 104.842 34.3683C104.894 34.4207 104.965 34.4453 105.054 34.4453C105.143 34.4453 105.214 34.4207 105.266 34.3683C105.318 34.316 105.346 34.2267 105.346 34.0974C105.346 33.9742 105.318 33.8665 105.263 33.7741C105.208 33.6818 105.14 33.5925 105.06 33.5093C104.977 33.4262 104.891 33.3431 104.799 33.26C104.706 33.1768 104.617 33.0845 104.537 32.986C104.454 32.8874 104.386 32.7735 104.334 32.6473C104.279 32.5211 104.251 32.3733 104.251 32.2039L104.242 32.2009ZM106.943 32.2009C106.943 31.9115 107.01 31.6898 107.149 31.5328C107.287 31.3788 107.493 31.2988 107.77 31.2988C108.047 31.2988 108.253 31.3758 108.391 31.5328C108.53 31.6867 108.598 31.9115 108.598 32.2009V32.3148H108.065V32.167C108.065 32.0377 108.041 31.9453 107.992 31.893C107.942 31.8407 107.875 31.8129 107.785 31.8129C107.696 31.8129 107.629 31.8407 107.579 31.893C107.53 31.9453 107.506 32.0377 107.506 32.167C107.506 32.2902 107.533 32.3979 107.589 32.4903C107.644 32.5826 107.712 32.6719 107.792 32.7551C107.875 32.8382 107.961 32.9213 108.053 33.0044C108.145 33.0876 108.235 33.1799 108.315 33.2784C108.398 33.377 108.465 33.4909 108.518 33.6171C108.573 33.7433 108.601 33.8911 108.601 34.0605C108.601 34.3499 108.53 34.5715 108.388 34.7285C108.247 34.8825 108.038 34.9625 107.764 34.9625C107.49 34.9625 107.281 34.8856 107.139 34.7285C106.998 34.5746 106.927 34.3499 106.927 34.0605V33.8419H107.459V34.0974C107.459 34.2267 107.487 34.316 107.539 34.3683C107.592 34.4207 107.662 34.4453 107.752 34.4453C107.841 34.4453 107.912 34.4207 107.964 34.3683C108.016 34.316 108.044 34.2267 108.044 34.0974C108.044 33.9742 108.016 33.8665 107.961 33.7741C107.905 33.6818 107.838 33.5925 107.758 33.5093C107.675 33.4262 107.589 33.3431 107.496 33.26C107.404 33.1768 107.315 33.0845 107.235 32.986C107.152 32.8874 107.084 32.7735 107.032 32.6473C106.976 32.5211 106.949 32.3733 106.949 32.2039L106.943 32.2009ZM109.487 32.8505H110.259V33.3616H109.487V34.4084H110.455V34.9194H108.924V31.3419H110.455V31.853H109.487V32.8505ZM111.978 34.9194C111.972 34.8948 111.966 34.8733 111.957 34.8517C111.95 34.8301 111.944 34.8055 111.938 34.7747C111.932 34.7439 111.929 34.7039 111.929 34.6577C111.929 34.6085 111.929 34.55 111.929 34.4792V33.9158C111.929 33.7495 111.901 33.6325 111.843 33.5617C111.784 33.494 111.692 33.4601 111.563 33.4601H111.369V34.9164H110.806V31.3388H111.655C111.947 31.3388 112.16 31.4065 112.292 31.542C112.424 31.6775 112.489 31.8838 112.489 32.1608V32.441C112.489 32.8074 112.366 33.0506 112.12 33.1676C112.261 33.2261 112.36 33.3215 112.412 33.4509C112.464 33.5832 112.492 33.7403 112.492 33.9281V34.4792C112.492 34.5685 112.495 34.6454 112.501 34.7132C112.507 34.7809 112.526 34.8455 112.553 34.9164H111.981L111.978 34.9194ZM111.366 31.853V32.9521H111.584C111.689 32.9521 111.772 32.9244 111.834 32.869C111.892 32.8135 111.923 32.715 111.923 32.5734V32.2193C111.923 32.09 111.901 31.9946 111.855 31.9392C111.809 31.8807 111.738 31.853 111.637 31.853H111.366ZM113.695 34.2606L114.122 31.3419H114.639L114.088 34.9194H113.252L112.701 31.3419H113.267L113.695 34.2606ZM114.9 31.3419H115.463V34.9194H114.9V31.3419ZM117.5 33.5863V34.0605C117.5 34.3499 117.429 34.5715 117.287 34.7285C117.146 34.8825 116.937 34.9625 116.663 34.9625C116.389 34.9625 116.18 34.8856 116.039 34.7285C115.897 34.5746 115.826 34.3499 115.826 34.0605V32.2009C115.826 31.9115 115.897 31.6898 116.039 31.5328C116.18 31.3788 116.389 31.2988 116.663 31.2988C116.937 31.2988 117.146 31.3758 117.287 31.5328C117.429 31.6867 117.5 31.9115 117.5 32.2009V32.5488H116.968V32.167C116.968 32.0377 116.94 31.9453 116.888 31.893C116.835 31.8407 116.765 31.8129 116.675 31.8129C116.586 31.8129 116.515 31.8407 116.463 31.893C116.411 31.9453 116.383 32.0377 116.383 32.167V34.0974C116.383 34.2267 116.411 34.316 116.463 34.3683C116.515 34.4207 116.586 34.4453 116.675 34.4453C116.765 34.4453 116.835 34.4207 116.888 34.3683C116.94 34.316 116.968 34.2267 116.968 34.0974V33.5863H117.5ZM118.404 32.8505H119.176V33.3616H118.404V34.4084H119.373V34.9194H117.841V31.3419H119.373V31.853H118.404V32.8505Z" fill="#912302"/>
<path d="M72.9982 31.3419H73.5611V34.4084H74.4839V34.9194H72.9982V31.3419ZM75.2437 34.0974C75.2437 34.2267 75.2714 34.3191 75.3237 34.3714C75.376 34.4237 75.4467 34.4515 75.5359 34.4515C75.6252 34.4515 75.6959 34.4237 75.7482 34.3714C75.8005 34.3191 75.8282 34.2267 75.8282 34.0974V32.167C75.8282 32.0377 75.8005 31.9453 75.7482 31.893C75.6959 31.8407 75.6252 31.8129 75.5359 31.8129C75.4467 31.8129 75.376 31.8407 75.3237 31.893C75.2714 31.9453 75.2437 32.0377 75.2437 32.167V34.0974ZM74.6808 32.2009C74.6808 31.9115 74.7546 31.6898 74.8992 31.5328C75.0469 31.3788 75.256 31.2988 75.5329 31.2988C75.8097 31.2988 76.0189 31.3758 76.1665 31.5328C76.3142 31.6867 76.3849 31.9115 76.3849 32.2009V34.0605C76.3849 34.3499 76.3111 34.5715 76.1665 34.7285C76.0189 34.8825 75.8097 34.9625 75.5329 34.9625C75.256 34.9625 75.0469 34.8856 74.8992 34.7285C74.7516 34.5746 74.6808 34.3499 74.6808 34.0605V32.2009ZM77.5908 32.9275H78.3782V34.0635C78.3782 34.3529 78.3075 34.5746 78.166 34.7316C78.0245 34.8856 77.8153 34.9656 77.5415 34.9656C77.2678 34.9656 77.0586 34.8886 76.9171 34.7316C76.7756 34.5777 76.7049 34.3529 76.7049 34.0635V32.2039C76.7049 31.9145 76.7756 31.6929 76.9171 31.5359C77.0586 31.3819 77.2678 31.3019 77.5415 31.3019C77.8153 31.3019 78.0245 31.3788 78.166 31.5359C78.3075 31.6898 78.3782 31.9145 78.3782 32.2039V32.5519H77.8461V32.1701C77.8461 32.0408 77.8184 31.9484 77.7661 31.8961C77.7138 31.8437 77.6431 31.816 77.5538 31.816C77.4646 31.816 77.3939 31.8437 77.3416 31.8961C77.2893 31.9484 77.2616 32.0408 77.2616 32.1701V34.1005C77.2616 34.2298 77.2893 34.3191 77.3416 34.3714C77.3939 34.4237 77.4646 34.4484 77.5538 34.4484C77.6431 34.4484 77.7138 34.4237 77.7661 34.3714C77.8184 34.3191 77.8461 34.2298 77.8461 34.1005V33.4416H77.5908V32.9275ZM78.7381 31.3419H79.3011V34.9194H78.7381V31.3419ZM79.6364 32.2009C79.6364 31.9115 79.704 31.6898 79.8424 31.5328C79.9809 31.3788 80.187 31.2988 80.4638 31.2988C80.7407 31.2988 80.9468 31.3758 81.0852 31.5328C81.2236 31.6867 81.2913 31.9115 81.2913 32.2009V32.3148H80.7591V32.167C80.7591 32.0377 80.7345 31.9453 80.6853 31.893C80.6361 31.8407 80.5684 31.8129 80.4792 31.8129C80.39 31.8129 80.3223 31.8407 80.2731 31.893C80.2239 31.9453 80.1993 32.0377 80.1993 32.167C80.1993 32.2902 80.227 32.3979 80.2823 32.4903C80.3377 32.5826 80.4054 32.6719 80.4853 32.7551C80.5684 32.8382 80.6545 32.9213 80.7468 33.0044C80.8391 33.0876 80.9283 33.1799 81.0083 33.2784C81.0913 33.377 81.159 33.4909 81.2113 33.6171C81.2667 33.7433 81.2943 33.8911 81.2943 34.0605C81.2943 34.3499 81.2236 34.5715 81.0821 34.7285C80.9406 34.8825 80.7314 34.9625 80.4577 34.9625C80.1839 34.9625 79.9747 34.8856 79.8332 34.7285C79.6917 34.5746 79.621 34.3499 79.621 34.0605V33.8419H80.1531V34.0974C80.1531 34.2267 80.1808 34.316 80.2331 34.3683C80.2854 34.4207 80.3561 34.4453 80.4454 34.4453C80.5346 34.4453 80.6053 34.4207 80.6576 34.3683C80.7099 34.316 80.7376 34.2267 80.7376 34.0974C80.7376 33.9742 80.7099 33.8665 80.6545 33.7741C80.5992 33.6818 80.5315 33.5925 80.4515 33.5093C80.3685 33.4262 80.2823 33.3431 80.19 33.26C80.0978 33.1768 80.0086 33.0845 79.9286 32.986C79.8455 32.8874 79.7778 32.7735 79.7256 32.6473C79.6702 32.5211 79.6425 32.3733 79.6425 32.2039L79.6364 32.2009ZM83.1892 31.3419V31.853H82.6017V34.9194H82.0388V31.853H81.4512V31.3419H83.1892ZM83.4353 31.3419H83.9982V34.9194H83.4353V31.3419ZM86.0346 33.5863V34.0605C86.0346 34.3499 85.9638 34.5715 85.8223 34.7285C85.6808 34.8825 85.4717 34.9625 85.1979 34.9625C84.9241 34.9625 84.7149 34.8856 84.5734 34.7285C84.4319 34.5746 84.3612 34.3499 84.3612 34.0605V32.2009C84.3612 31.9115 84.4319 31.6898 84.5734 31.5328C84.7149 31.3788 84.9241 31.2988 85.1979 31.2988C85.4717 31.2988 85.6808 31.3758 85.8223 31.5328C85.9638 31.6867 86.0346 31.9115 86.0346 32.2009V32.5488H85.5024V32.167C85.5024 32.0377 85.4747 31.9453 85.4224 31.893C85.3701 31.8407 85.2994 31.8129 85.2102 31.8129C85.121 31.8129 85.0502 31.8407 84.9979 31.893C84.9456 31.9453 84.918 32.0377 84.918 32.167V34.0974C84.918 34.2267 84.9456 34.316 84.9979 34.3683C85.0502 34.4207 85.121 34.4453 85.2102 34.4453C85.2994 34.4453 85.3701 34.4207 85.4224 34.3683C85.4747 34.316 85.5024 34.2267 85.5024 34.0974V33.5863H86.0346Z" fill="#912302"/>
<path d="M44.2739 43.0135C41.5392 43.0135 39.1922 42.1515 37.2389 40.4305C35.2856 38.7094 34.3074 36.4988 34.3074 33.7988V8.86064H40.7579V33.8018C40.7579 35.8369 41.9299 36.8529 44.2769 36.8529H60.5155L55.6461 43.0135H44.2739Z" fill="#912302"/>
<path fill-rule="evenodd" clip-rule="evenodd" d="M3.81433 23.2755L0 23.1369C0.227629 23.4202 2.54391 25.2982 2.94687 25.486L1.6457 29.1683C2.72232 28.6572 3.83586 27.6166 4.86634 27.124C5.40158 27.3918 7.08726 28.9189 7.88396 29.43L6.89347 25.6739C7.41333 25.4368 9.80651 23.8543 10.0587 23.5526L6.22596 23.3894C6.12445 22.9368 5.42311 20.1844 5.1678 19.8026L3.81125 23.2724L3.81433 23.2755Z" fill="#912302"/>
<path fill-rule="evenodd" clip-rule="evenodd" d="M4.5249 37.3301C4.63871 37.4009 4.87557 37.6503 5.03553 37.7889L6.73044 39.1189L5.78609 41.7913C6.55818 41.4249 7.42871 40.5567 8.2131 40.3042C8.86831 40.7999 9.72961 41.5788 10.4156 41.9668L9.73576 39.2236L12.0182 37.6164L9.14515 37.4902C8.98212 36.5912 8.67451 35.5783 8.42228 34.7717C7.97009 35.3782 7.81629 36.9915 7.20108 37.4102L4.52182 37.3301H4.5249Z" fill="#912302"/>
<path fill-rule="evenodd" clip-rule="evenodd" d="M8.50841 8.90374L5.73379 8.82985C6.00449 9.27319 7.40717 10.2153 7.89319 10.6525L6.94576 13.3095C7.55175 12.9893 8.82832 11.9979 9.39431 11.8317C10.111 12.3119 10.8739 12.9985 11.5537 13.5004L10.8678 10.7941C11.3722 10.3816 12.7995 9.59646 13.1687 9.13465L10.3356 9.01765C10.1849 8.21101 9.6527 7.038 9.68347 6.29909C9.52043 6.43763 9.60656 6.33296 9.47429 6.53616C9.19745 6.96719 8.88369 8.34032 8.51148 8.90682" fill="#912302"/>
<path fill-rule="evenodd" clip-rule="evenodd" d="M13.7623 47.5024C13.9654 47.6656 14.2545 47.9365 14.5621 48.1859C14.8666 48.4322 15.125 48.5892 15.3865 48.8817L14.6944 50.8614C15.3373 50.5288 15.8602 50.0455 16.4785 49.7622C17.1522 50.1532 17.5428 50.6458 18.2103 50.9999L17.6659 48.934C18.155 48.5492 18.8409 48.1613 19.3885 47.7241L17.3213 47.5979C17.0076 47.0314 16.9768 46.1354 16.6477 45.6675C16.4754 45.9415 16.3432 46.3356 16.2293 46.6496C15.8202 47.8011 16.1186 47.5763 13.7623 47.5024Z" fill="#912302"/>
<path fill-rule="evenodd" clip-rule="evenodd" d="M17.0814 1.9734L14.9651 1.89951C15.3865 2.32438 16.0848 2.92475 16.5862 3.16181L15.894 5.23691C16.62 4.92287 17.0568 4.3964 17.7797 4.15318C18.198 4.63039 18.9086 5.06758 19.3885 5.42164L18.8286 3.27881C19.2531 3.12179 20.2744 2.42906 20.5789 2.14274L18.4503 2.0319L17.8873 -0.00317383L17.0814 1.97032V1.9734Z" fill="#912302"/>
</g>
<defs>
<clipPath id="clip0_2531_10260">
<rect width="133" height="51" fill="white"/>
</clipPath>
</defs>
</svg>
