<svg width="32" height="33" viewBox="0 0 32 33" fill="none" xmlns="http://www.w3.org/2000/svg">
<rect y="0.5" width="32" height="32" rx="16" fill="#35AEE2"/>
<path d="M8.98092 16.076C8.98092 16.076 16.0573 13.0028 18.5116 11.9206C19.4524 11.4877 22.6429 10.1026 22.6429 10.1026C22.6429 10.1026 24.1154 9.4966 23.9927 10.9683C23.9518 11.5743 23.6246 13.6953 23.2974 15.9895C22.8065 19.2359 22.2748 22.7853 22.2748 22.7853C22.2748 22.7853 22.193 23.7809 21.4976 23.9541C20.8022 24.1272 19.6569 23.3481 19.4524 23.1749C19.2888 23.0451 16.3846 21.0972 15.3211 20.1449C15.0347 19.8852 14.7075 19.3658 15.362 18.7598C16.8345 17.3313 18.5934 15.5566 19.6569 14.4312C20.1477 13.9118 20.6386 12.6998 18.5934 14.1715C15.6892 16.2925 12.8259 18.2836 12.8259 18.2836C12.8259 18.2836 12.1714 18.7165 10.9443 18.3269C9.71719 17.9373 8.28555 17.4179 8.28555 17.4179C8.28555 17.4179 7.30385 16.7686 8.98092 16.076Z" fill="#35AEE2"/>
<path d="M8.98092 16.076C8.98092 16.076 16.0573 13.0028 18.5116 11.9206C19.4524 11.4877 22.6429 10.1026 22.6429 10.1026C22.6429 10.1026 24.1154 9.4966 23.9927 10.9683C23.9518 11.5743 23.6246 13.6953 23.2974 15.9895C22.8065 19.2359 22.2748 22.7853 22.2748 22.7853C22.2748 22.7853 22.193 23.7809 21.4976 23.9541C20.8022 24.1272 19.6569 23.3481 19.4524 23.1749C19.2888 23.0451 16.3846 21.0972 15.3211 20.1449C15.0347 19.8852 14.7075 19.3658 15.362 18.7598C16.8345 17.3313 18.5934 15.5566 19.6569 14.4312C20.1477 13.9118 20.6386 12.6998 18.5934 14.1715C15.6892 16.2925 12.8259 18.2836 12.8259 18.2836C12.8259 18.2836 12.1714 18.7165 10.9443 18.3269C9.71719 17.9373 8.28555 17.4179 8.28555 17.4179C8.28555 17.4179 7.30385 16.7686 8.98092 16.076Z" fill="white"/>
</svg>
