<svg width="32" height="33" viewBox="0 0 32 33" fill="none" xmlns="http://www.w3.org/2000/svg">
<rect y="0.5" width="32" height="32" rx="16" fill="#AA5ABE"/>
<path d="M21.8066 10.0595C21.4136 9.6937 19.8252 8.52734 16.2872 8.51151C16.2872 8.51151 12.1155 8.25679 10.0817 10.1442C8.94968 11.2895 8.55136 12.9649 8.5092 15.0434C8.46753 17.1218 8.41277 21.0155 12.1237 22.0717L12.1271 22.0726L12.1252 23.6838C12.1252 23.6838 12.1019 24.3364 12.5259 24.469C13.0396 24.6304 13.341 24.1344 13.8314 23.6C14.1008 23.307 14.472 22.8761 14.7521 22.5467C17.2903 22.7617 19.2422 22.2685 19.4637 22.1957C19.9764 22.0272 22.8761 21.6518 23.3476 17.7582C23.8341 13.7434 23.1116 11.2048 21.8066 10.0595ZM22.2452 17.468C21.8464 20.7196 19.4952 20.9249 19.062 21.0657C18.8773 21.1255 17.1624 21.557 15.007 21.4143L12.6703 23.973L12.6679 21.0245L12.6495 21.0198C9.51035 20.1378 9.61598 16.8312 9.65136 15.0955C9.68674 13.3599 10.009 11.9378 10.967 10.9817C12.6868 9.40544 16.2305 9.64103 16.2305 9.64103C19.2233 9.65443 20.6577 10.5656 20.9901 10.8711C22.094 11.8277 22.6566 14.1159 22.2452 17.468Z" fill="#AA5ABE"/>
<path d="M21.8066 10.0595C21.4136 9.6937 19.8252 8.52734 16.2872 8.51151C16.2872 8.51151 12.1155 8.25679 10.0817 10.1442C8.94968 11.2895 8.55136 12.9649 8.5092 15.0434C8.46753 17.1218 8.41277 21.0155 12.1237 22.0717L12.1271 22.0726L12.1252 23.6838C12.1252 23.6838 12.1019 24.3364 12.5259 24.469C13.0396 24.6304 13.341 24.1344 13.8314 23.6C14.1008 23.307 14.472 22.8761 14.7521 22.5467C17.2903 22.7617 19.2422 22.2685 19.4637 22.1957C19.9764 22.0272 22.8761 21.6518 23.3476 17.7582C23.8341 13.7434 23.1116 11.2048 21.8066 10.0595ZM22.2452 17.468C21.8464 20.7196 19.4952 20.9249 19.062 21.0657C18.8773 21.1255 17.1624 21.557 15.007 21.4143L12.6703 23.973L12.6679 21.0245L12.6495 21.0198C9.51035 20.1378 9.61598 16.8312 9.65136 15.0955C9.68674 13.3599 10.009 11.9378 10.967 10.9817C12.6868 9.40544 16.2305 9.64103 16.2305 9.64103C19.2233 9.65443 20.6577 10.5656 20.9901 10.8711C22.094 11.8277 22.6566 14.1159 22.2452 17.468Z" fill="white"/>
<path d="M19.5432 17.953C19.5417 17.9516 19.0674 17.5518 18.8357 17.3794C18.6171 17.2171 18.2687 16.9988 18.0739 16.8877C17.7245 16.6909 17.3674 16.8144 17.2201 17.0079L16.9138 17.3972C16.7569 17.5944 16.5151 17.5614 16.4516 17.5485C15.999 17.4364 15.5178 17.1568 15.0254 16.6856C14.5273 16.2102 14.2258 15.7137 14.1183 15.1976L14.1105 15.1635C14.0814 14.9514 14.1173 14.8533 14.205 14.7087L14.2215 14.6953C14.4284 14.5052 14.8118 14.2739 14.8631 14.0536C15.0138 13.6711 14.3596 12.8734 14.2661 12.7327C14.2661 12.7327 13.7902 12.1102 13.6211 11.9914C13.4384 11.8411 13.1554 11.7554 12.87 11.9288L12.8555 11.9393C12.0356 12.4875 11.7385 12.8025 11.8194 13.2728L11.8616 13.4619C12.2774 14.757 13.0803 16.1379 14.2777 17.3675C15.462 18.5817 16.7433 19.309 18.0061 19.8127C18.3342 19.9204 18.6743 19.8275 19.0232 19.5331L19.0291 19.5288C19.2965 19.2817 19.5083 19.0174 19.6663 18.7344L19.6677 18.7287C19.8213 18.4294 19.7695 18.146 19.5432 17.953Z" fill="#AA5ABE"/>
<path d="M19.5432 17.953C19.5417 17.9516 19.0674 17.5518 18.8357 17.3794C18.6171 17.2171 18.2687 16.9988 18.0739 16.8877C17.7245 16.6909 17.3674 16.8144 17.2201 17.0079L16.9138 17.3972C16.7569 17.5944 16.5151 17.5614 16.4516 17.5485C15.999 17.4364 15.5178 17.1568 15.0254 16.6856C14.5273 16.2102 14.2258 15.7137 14.1183 15.1976L14.1105 15.1635C14.0814 14.9514 14.1173 14.8533 14.205 14.7087L14.2215 14.6953C14.4284 14.5052 14.8118 14.2739 14.8631 14.0536C15.0138 13.6711 14.3596 12.8734 14.2661 12.7327C14.2661 12.7327 13.7902 12.1102 13.6211 11.9914C13.4384 11.8411 13.1554 11.7554 12.87 11.9288L12.8555 11.9393C12.0356 12.4875 11.7385 12.8025 11.8194 13.2728L11.8616 13.4619C12.2774 14.757 13.0803 16.1379 14.2777 17.3675C15.462 18.5817 16.7433 19.309 18.0061 19.8127C18.3342 19.9204 18.6743 19.8275 19.0232 19.5331L19.0291 19.5288C19.2965 19.2817 19.5083 19.0174 19.6663 18.7344L19.6677 18.7287C19.8213 18.4294 19.7695 18.146 19.5432 17.953Z" fill="white"/>
<path d="M17.5773 15.1169C17.5274 15.1169 17.4857 15.0772 17.4833 15.0264C17.4668 14.6908 17.3753 14.4336 17.211 14.2618C17.0477 14.0913 16.803 13.996 16.4841 13.9788C16.4322 13.9759 16.3921 13.9309 16.395 13.8782C16.3979 13.8256 16.4419 13.7854 16.4943 13.7878C16.8626 13.8079 17.149 13.9228 17.3467 14.1291C17.5434 14.335 17.6529 14.6333 17.6718 15.0168C17.6742 15.0695 17.634 15.114 17.5822 15.1169H17.5773Z" fill="#AA5ABE"/>
<path d="M17.5773 15.1169C17.5274 15.1169 17.4857 15.0772 17.4833 15.0264C17.4668 14.6908 17.3753 14.4336 17.211 14.2618C17.0477 14.0913 16.803 13.996 16.4841 13.9788C16.4322 13.9759 16.3921 13.9309 16.395 13.8782C16.3979 13.8256 16.4419 13.7854 16.4943 13.7878C16.8626 13.8079 17.149 13.9228 17.3467 14.1291C17.5434 14.335 17.6529 14.6333 17.6718 15.0168C17.6742 15.0695 17.634 15.114 17.5822 15.1169H17.5773Z" fill="white"/>
<path d="M18.5116 15.4337H18.5092C18.4573 15.4323 18.4161 15.3887 18.4171 15.336C18.4316 14.6916 18.2412 14.1467 17.8506 13.7158C17.6563 13.5008 17.4203 13.3308 17.1485 13.2106C16.8762 13.0904 16.5587 13.0163 16.206 12.9899C16.1541 12.986 16.1149 12.9401 16.1187 12.8879C16.1226 12.8353 16.1677 12.7955 16.2195 12.7993C16.9726 12.8554 17.5681 13.1201 17.9902 13.587C18.4142 14.0548 18.6216 14.6451 18.6061 15.3404C18.6047 15.3925 18.5625 15.4337 18.5116 15.4337Z" fill="#AA5ABE"/>
<path d="M18.5116 15.4337H18.5092C18.4573 15.4323 18.4161 15.3887 18.4171 15.336C18.4316 14.6916 18.2412 14.1467 17.8506 13.7158C17.6563 13.5008 17.4203 13.3308 17.1485 13.2106C16.8762 13.0904 16.5587 13.0163 16.206 12.9899C16.1541 12.986 16.1149 12.9401 16.1187 12.8879C16.1226 12.8353 16.1677 12.7955 16.2195 12.7993C16.9726 12.8554 17.5681 13.1201 17.9902 13.587C18.4142 14.0548 18.6216 14.6451 18.6061 15.3404C18.6047 15.3925 18.5625 15.4337 18.5116 15.4337Z" fill="white"/>
<path d="M19.4683 15.8122C19.4164 15.8122 19.3743 15.7701 19.3738 15.7173C19.3695 15.1476 19.2827 14.6324 19.115 14.1852C18.9483 13.7414 18.6968 13.3511 18.3673 13.0256C18.0373 12.7004 17.6622 12.4524 17.2523 12.2882C16.8414 12.1235 16.3834 12.0383 15.8911 12.0349C15.8392 12.0344 15.7971 11.9913 15.7976 11.9387C15.7981 11.886 15.8402 11.8438 15.8921 11.8438H15.8925C16.9262 11.8515 17.8028 12.203 18.4991 12.8891C18.8485 13.2338 19.115 13.647 19.2914 14.1177C19.4668 14.5855 19.558 15.1237 19.5628 15.7159C19.5633 15.7686 19.5211 15.8117 19.4693 15.8122H19.4683Z" fill="#AA5ABE"/>
<path d="M19.4683 15.8122C19.4164 15.8122 19.3743 15.7701 19.3738 15.7173C19.3695 15.1476 19.2827 14.6324 19.115 14.1852C18.9483 13.7414 18.6968 13.3511 18.3673 13.0256C18.0373 12.7004 17.6622 12.4524 17.2523 12.2882C16.8414 12.1235 16.3834 12.0383 15.8911 12.0349C15.8392 12.0344 15.7971 11.9913 15.7976 11.9387C15.7981 11.886 15.8402 11.8438 15.8921 11.8438H15.8925C16.9262 11.8515 17.8028 12.203 18.4991 12.8891C18.8485 13.2338 19.115 13.647 19.2914 14.1177C19.4668 14.5855 19.558 15.1237 19.5628 15.7159C19.5633 15.7686 19.5211 15.8117 19.4693 15.8122H19.4683Z" fill="white"/>
</svg>
