<svg width="32" height="33" viewBox="0 0 32 33" fill="none" xmlns="http://www.w3.org/2000/svg">
<rect y="0.5" width="32" height="32" rx="16" fill="#00C232"/>
<path fill-rule="evenodd" clip-rule="evenodd" d="M12.3379 14.7101C12.3103 14.3438 12.3822 13.9769 12.546 13.6478C12.5959 13.5167 12.6653 13.3938 12.7519 13.2832C12.9063 13.0751 13.1127 12.9107 13.3506 12.8065C13.3506 12.8065 14.0575 12.7374 14.1186 12.8321C14.4462 13.3987 14.7203 13.9943 14.9373 14.6114C15.0455 15.015 14.4774 15.4756 14.4774 15.4756C14.4774 15.4756 14.1175 15.6584 14.4774 16.1111C14.7456 16.449 15.2019 17.0377 15.476 17.2551C15.7655 17.4911 16.0735 17.7037 16.397 17.8908C17.0662 18.2605 17.1909 18.2211 17.1909 18.2211C17.1909 18.2211 17.3144 18.2714 17.6508 17.8145C17.8307 17.5719 18.0272 17.2872 18.2142 17.2298C18.4306 17.1638 20.1784 18.1638 20.109 18.094C20.2314 18.2169 20.1349 18.611 20.1349 18.611C20.1349 18.611 20.1726 19.0519 19.5068 19.5602C19.0681 19.8955 18.3424 19.9753 18.3424 19.9753C17.8854 19.9427 17.4363 19.8399 17.0109 19.6706C16.3017 19.4042 15.5524 19.1801 14.5797 18.298C13.904 17.6867 13.3169 16.9847 12.8354 16.2121C12.3237 15.3331 12.3379 14.7101 12.3379 14.7101ZM16.1535 24.1441C14.7973 24.1461 13.4638 23.797 12.2837 23.1312L8 24.5L9.40792 20.3322C8.51942 18.8498 8.14824 17.1161 8.3522 15.4015C8.55617 13.6868 9.32382 12.0876 10.5355 10.8532C11.7472 9.6187 13.3348 8.81834 15.0508 8.57688C16.7669 8.33541 18.5149 8.66641 20.0223 9.51827C21.5298 10.3701 22.7119 11.695 23.3846 13.2862C24.0572 14.8775 24.1824 16.6458 23.7408 18.3154C23.2991 19.985 22.3154 21.4622 20.943 22.5165C19.5705 23.5708 17.8865 24.1431 16.1535 24.1441ZM16.1405 9.83216C14.9352 9.8277 13.7521 10.1544 12.7211 10.7765C11.6901 11.3985 10.8512 12.2917 10.2967 13.3579C9.74224 14.4241 9.49359 15.622 9.57812 16.8199C9.66264 18.0178 10.0771 19.1692 10.7759 20.1477L10.1513 22.0343L10.1536 22.0361L9.97132 22.5682L11.0311 22.2547C11.0294 22.2527 11.0274 22.251 11.0252 22.2496L12.479 21.7937C13.3302 22.3666 14.3044 22.7325 15.3234 22.862C16.3423 22.9915 17.3776 22.881 18.3459 22.5394C19.3141 22.1978 20.1885 21.6346 20.8985 20.8951C21.6086 20.1556 22.1346 19.2604 22.4343 18.2815C22.7339 17.3026 22.7988 16.2673 22.6238 15.2589C22.4488 14.2505 22.0387 13.297 21.4266 12.4752C20.8144 11.6534 20.0173 10.9861 19.0992 10.5271C18.1811 10.068 17.1677 9.83003 16.1405 9.83216Z" fill="#00C232"/>
<path fill-rule="evenodd" clip-rule="evenodd" d="M12.3379 14.7101C12.3103 14.3438 12.3822 13.9769 12.546 13.6478C12.5959 13.5167 12.6653 13.3938 12.7519 13.2832C12.9063 13.0751 13.1127 12.9107 13.3506 12.8065C13.3506 12.8065 14.0575 12.7374 14.1186 12.8321C14.4462 13.3987 14.7203 13.9943 14.9373 14.6114C15.0455 15.015 14.4774 15.4756 14.4774 15.4756C14.4774 15.4756 14.1175 15.6584 14.4774 16.1111C14.7456 16.449 15.2019 17.0377 15.476 17.2551C15.7655 17.4911 16.0735 17.7037 16.397 17.8908C17.0662 18.2605 17.1909 18.2211 17.1909 18.2211C17.1909 18.2211 17.3144 18.2714 17.6508 17.8145C17.8307 17.5719 18.0272 17.2872 18.2142 17.2298C18.4306 17.1638 20.1784 18.1638 20.109 18.094C20.2314 18.2169 20.1349 18.611 20.1349 18.611C20.1349 18.611 20.1726 19.0519 19.5068 19.5602C19.0681 19.8955 18.3424 19.9753 18.3424 19.9753C17.8854 19.9427 17.4363 19.8399 17.0109 19.6706C16.3017 19.4042 15.5524 19.1801 14.5797 18.298C13.904 17.6867 13.3169 16.9847 12.8354 16.2121C12.3237 15.3331 12.3379 14.7101 12.3379 14.7101ZM16.1535 24.1441C14.7973 24.1461 13.4638 23.797 12.2837 23.1312L8 24.5L9.40792 20.3322C8.51942 18.8498 8.14824 17.1161 8.3522 15.4015C8.55617 13.6868 9.32382 12.0876 10.5355 10.8532C11.7472 9.6187 13.3348 8.81834 15.0508 8.57688C16.7669 8.33541 18.5149 8.66641 20.0223 9.51827C21.5298 10.3701 22.7119 11.695 23.3846 13.2862C24.0572 14.8775 24.1824 16.6458 23.7408 18.3154C23.2991 19.985 22.3154 21.4622 20.943 22.5165C19.5705 23.5708 17.8865 24.1431 16.1535 24.1441ZM16.1405 9.83216C14.9352 9.8277 13.7521 10.1544 12.7211 10.7765C11.6901 11.3985 10.8512 12.2917 10.2967 13.3579C9.74224 14.4241 9.49359 15.622 9.57812 16.8199C9.66264 18.0178 10.0771 19.1692 10.7759 20.1477L10.1513 22.0343L10.1536 22.0361L9.97132 22.5682L11.0311 22.2547C11.0294 22.2527 11.0274 22.251 11.0252 22.2496L12.479 21.7937C13.3302 22.3666 14.3044 22.7325 15.3234 22.862C16.3423 22.9915 17.3776 22.881 18.3459 22.5394C19.3141 22.1978 20.1885 21.6346 20.8985 20.8951C21.6086 20.1556 22.1346 19.2604 22.4343 18.2815C22.7339 17.3026 22.7988 16.2673 22.6238 15.2589C22.4488 14.2505 22.0387 13.297 21.4266 12.4752C20.8144 11.6534 20.0173 10.9861 19.0992 10.5271C18.1811 10.068 17.1677 9.83003 16.1405 9.83216Z" fill="white"/>
</svg>
